<svg id="svg" xmlns="http://www.w3.org/2000/svg" xmlns:xlink="http://www.w3.org/1999/xlink" width="400" height="399.4907702100573" viewBox="0, 0, 400,399.4907702100573"><g id="svgg"><path id="path0" d="M185.869 0.391 C 175.933 1.188,170.085 1.977,170.076 2.521 C 170.072 2.745,170.668 6.977,171.400 11.925 L 172.732 20.922 173.496 20.769 C 174.693 20.529,182.051 19.677,186.123 19.305 C 195.046 18.492,212.411 18.942,222.915 20.258 C 224.596 20.469,226.249 20.666,226.588 20.696 L 227.206 20.751 228.645 11.509 C 229.436 6.426,230.014 2.224,229.930 2.172 C 229.684 2.020,221.774 1.052,217.187 0.611 C 211.247 0.041,191.920 -0.095,185.869 0.391 M149.077 6.514 C 143.958 7.899,141.994 8.485,137.499 9.964 C 123.323 14.632,97.547 26.520,96.810 28.730 C 96.724 28.988,105.388 43.776,106.061 44.520 C 106.319 44.805,106.606 44.716,107.737 43.998 C 118.698 37.044,138.554 28.751,153.360 24.943 C 156.366 24.169,156.614 24.061,156.485 23.573 C 156.408 23.281,155.400 19.176,154.246 14.449 C 152.612 7.764,152.060 5.860,151.758 5.875 C 151.544 5.885,150.337 6.173,149.077 6.514 M247.862 6.174 C 247.602 6.884,243.390 23.996,243.462 24.052 C 243.504 24.085,244.341 24.309,245.321 24.549 C 259.810 28.094,284.244 38.267,292.846 44.335 C 293.716 44.949,293.689 44.956,294.272 43.985 C 295.228 42.391,301.897 31.432,302.695 30.144 C 303.138 29.428,303.501 28.780,303.501 28.704 C 303.501 28.354,291.875 22.055,285.933 19.186 C 276.242 14.506,261.845 9.281,251.324 6.625 C 247.804 5.736,248.013 5.763,247.862 6.174 M191.980 37.597 C 177.751 38.580,165.245 40.650,155.315 43.667 C 149.694 45.374,147.471 46.110,143.666 47.521 C 72.756 73.823,29.436 145.146,38.836 220.115 C 41.638 242.461,49.814 265.840,61.182 284.010 L 62.448 286.034 61.782 288.848 C 58.826 301.339,48.741 344.048,47.692 348.512 C 47.190 350.651,46.844 352.467,46.923 352.546 C 47.086 352.708,47.950 352.522,57.670 350.226 C 61.451 349.334,68.039 347.788,72.311 346.792 C 76.582 345.796,82.253 344.474,84.914 343.854 C 87.575 343.233,94.908 341.520,101.209 340.045 C 107.511 338.570,112.880 337.314,113.140 337.254 C 113.419 337.189,114.769 337.848,116.450 338.872 C 155.681 362.771,205.526 368.605,249.370 354.430 C 318.516 332.074,363.614 269.306,362.497 196.978 C 361.389 125.275,314.011 63.651,244.558 43.577 C 228.654 38.980,207.226 36.543,191.980 37.597 M78.931 40.595 C 65.284 50.857,48.412 67.894,39.496 80.415 L 38.939 81.198 45.886 86.386 C 49.706 89.239,53.138 91.772,53.512 92.015 L 54.191 92.456 56.090 89.958 C 62.499 81.527,69.992 73.442,79.310 64.904 C 81.228 63.146,87.928 57.631,90.422 55.757 L 92.620 54.106 92.088 53.342 C 90.353 50.854,81.394 38.957,81.258 38.962 C 81.168 38.965,80.121 39.699,78.931 40.595 M312.969 46.501 C 307.566 53.697,307.327 54.063,307.811 54.402 C 319.268 62.426,336.027 79.035,344.841 91.099 L 345.825 92.446 346.496 92.008 C 349.652 89.948,361.037 81.158,360.886 80.899 C 358.385 76.587,345.593 62.148,337.466 54.464 C 332.062 49.354,319.549 38.956,318.804 38.956 C 318.711 38.956,316.085 42.351,312.969 46.501 M26.545 100.154 C 19.238 112.847,13.078 127.048,8.788 141.090 C 7.373 145.722,5.763 151.751,5.908 151.878 C 6.119 152.064,23.978 156.374,24.086 156.266 C 24.156 156.197,24.554 154.837,24.971 153.245 C 28.693 139.030,35.299 122.905,42.629 110.139 C 43.830 108.048,44.812 106.256,44.812 106.155 C 44.812 106.055,42.893 104.831,40.547 103.436 C 38.202 102.040,34.645 99.908,32.643 98.699 C 30.642 97.489,28.923 96.501,28.824 96.503 C 28.725 96.505,27.700 98.148,26.545 100.154 M370.592 96.800 C 367.519 98.520,355.188 105.999,355.188 106.142 C 355.188 106.246,355.598 107.012,356.100 107.844 C 363.733 120.508,370.790 137.324,374.938 152.735 C 375.827 156.037,375.962 156.354,376.430 156.231 C 376.712 156.157,380.785 155.157,385.480 154.009 C 390.175 152.860,394.060 151.886,394.114 151.844 C 394.573 151.486,390.306 137.450,387.282 129.368 C 383.237 118.558,378.608 108.901,372.230 97.963 C 371.298 96.366,371.328 96.387,370.592 96.800 M2.157 170.184 C -0.281 180.638,-0.573 207.632,1.565 224.952 C 1.858 227.333,2.191 229.381,2.304 229.504 C 2.477 229.692,11.106 228.531,18.842 227.279 L 20.751 226.970 20.732 226.088 C 20.722 225.603,20.468 223.144,20.168 220.624 C 18.533 206.909,18.570 191.043,20.266 177.721 C 20.471 176.111,20.706 174.273,20.788 173.637 L 20.937 172.480 14.479 171.508 C 10.927 170.974,6.729 170.337,5.151 170.093 L 2.282 169.650 2.157 170.184 M391.343 170.614 C 387.912 171.139,383.787 171.761,382.177 171.997 C 380.567 172.232,379.214 172.457,379.172 172.497 C 379.130 172.537,379.274 173.872,379.491 175.464 C 381.602 190.903,381.647 207.721,379.619 223.035 C 379.351 225.061,379.215 226.790,379.317 226.877 C 379.502 227.033,396.703 229.678,397.473 229.668 C 397.908 229.662,398.330 226.986,399.099 219.351 C 400.280 207.623,400.289 189.425,399.118 179.885 C 399.050 179.325,398.748 176.862,398.448 174.411 C 398.149 171.961,397.831 169.889,397.742 169.807 C 397.654 169.726,394.774 170.089,391.343 170.614 M14.656 245.351 C 9.903 246.531,5.973 247.538,5.924 247.588 C 5.779 247.733,7.290 253.519,8.655 258.045 C 11.904 268.818,16.844 280.952,22.179 291.259 L 24.211 295.185 23.671 297.497 C 23.374 298.769,22.331 303.173,21.354 307.285 C 20.377 311.397,19.621 314.805,19.674 314.857 C 19.726 314.910,21.022 315.241,22.552 315.593 C 25.469 316.263,28.792 317.041,33.482 318.150 C 35.022 318.514,36.684 318.873,37.174 318.947 L 38.065 319.082 41.202 305.667 L 44.339 292.253 42.493 289.029 C 35.087 276.097,28.912 261.042,25.088 246.595 C 24.718 245.194,24.356 243.848,24.284 243.603 C 24.105 242.989,24.322 242.949,14.656 245.351 M374.812 247.167 C 370.832 261.793,364.611 276.851,357.383 289.346 C 356.176 291.433,355.188 293.213,355.188 293.301 C 355.188 293.436,358.926 295.730,369.215 301.910 C 371.418 303.232,371.207 303.241,372.097 301.782 C 378.892 290.635,386.118 274.565,390.503 260.853 C 391.845 256.654,394.144 248.444,394.144 247.849 C 394.144 247.609,377.070 243.157,376.150 243.157 C 376.014 243.157,375.412 244.962,374.812 247.167 M344.357 309.033 C 335.537 320.818,322.672 333.678,309.901 343.475 C 307.135 345.597,307.043 344.990,310.940 350.282 C 312.800 352.808,315.239 356.143,316.359 357.693 C 317.479 359.243,318.478 360.517,318.578 360.523 C 318.812 360.538,324.861 355.913,327.689 353.557 C 335.443 347.099,345.231 337.580,351.146 330.745 C 354.250 327.158,360.318 319.608,360.812 318.719 C 361.019 318.346,360.362 317.763,356.531 314.925 C 354.042 313.081,350.917 310.748,349.586 309.742 C 348.256 308.735,346.868 307.719,346.503 307.483 L 345.838 307.053 344.357 309.033 M15.676 331.800 C 15.583 332.082,9.463 358.204,6.946 369.064 C 4.282 380.559,10.446 390.617,21.561 392.911 C 25.316 393.686,26.218 393.545,44.558 389.319 C 50.553 387.937,59.422 385.902,63.359 385.004 C 65.788 384.450,67.839 383.933,67.917 383.855 C 68.043 383.729,63.997 365.631,63.798 365.432 C 63.709 365.343,61.787 365.775,50.541 368.416 C 44.054 369.939,36.608 371.665,27.377 373.787 C 24.904 374.356,25.077 374.615,25.829 371.458 C 30.369 352.403,34.109 335.986,33.944 335.841 C 33.778 335.697,28.103 334.324,16.361 331.588 C 16.010 331.506,15.747 331.587,15.676 331.800 M290.643 356.367 C 279.035 363.301,263.869 369.673,249.013 373.858 C 246.843 374.470,244.707 375.073,244.266 375.200 L 243.465 375.430 245.684 384.453 C 246.905 389.416,248.025 393.517,248.174 393.567 C 249.228 393.918,264.739 389.049,273.329 385.669 C 282.488 382.066,298.268 374.306,302.774 371.188 L 303.448 370.722 300.909 366.456 C 299.512 364.110,297.376 360.506,296.161 358.447 C 293.575 354.065,294.140 354.278,290.643 356.367 M93.953 358.410 C 86.601 360.133,80.557 361.545,80.522 361.548 C 80.154 361.579,84.294 379.679,84.700 379.814 C 84.839 379.860,89.309 378.888,94.633 377.653 L 104.315 375.408 108.618 377.638 C 120.647 383.873,135.088 389.424,148.211 392.858 L 151.927 393.831 154.158 384.885 C 155.384 379.965,156.405 375.836,156.425 375.711 C 156.444 375.585,155.831 375.323,155.060 375.128 C 147.436 373.198,137.411 369.789,130.108 366.643 C 122.536 363.381,117.042 360.718,112.154 357.943 C 110.056 356.752,108.109 355.665,107.829 355.528 C 107.445 355.339,104.054 356.044,93.953 358.410 M172.772 378.918 C 172.676 379.224,170.137 395.680,170.011 396.815 C 169.951 397.365,172.867 397.823,183.068 398.867 C 189.229 399.497,205.945 399.653,213.016 399.147 C 221.649 398.530,229.917 397.464,229.920 396.969 C 229.923 396.524,227.328 378.782,227.244 378.671 C 227.215 378.633,225.943 378.780,224.417 378.996 C 208.777 381.212,187.928 381.101,173.708 378.727 C 173.150 378.634,172.843 378.697,172.772 378.918 " stroke="none" fill="#000000" fill-rule="evenodd"></path></g></svg>