<?xml version="1.0" encoding="UTF-8" standalone="no"?>
<svg
   version="1.1"
   width="600"
   height="530"
   id="svg1"
   xmlns="http://www.w3.org/2000/svg"
   xmlns:svg="http://www.w3.org/2000/svg">
  <defs
     id="defs1" />
  <path
     d="m 146.79932,51.456055 c 16.37946,13.488969 32.65946,28.27198 46.40381,44.46582 1.86657,2.158729 3.79532,4.253145 5.73706,6.344235 4.71199,5.0784 9.22768,10.25489 13.57153,15.65577 1.85889,2.29953 3.73443,4.57726 5.63281,6.84375 9.01856,10.79033 17.52867,21.90354 25.85547,33.23438 0.85707,1.1628 0.85707,1.1628 1.73145,2.34912 C 299,232.77024 299,232.77024 299,247 c 0.66,0 1.32,0 2,0 0.23332,-0.80696 0.46664,-1.61391 0.70703,-2.44532 1.60051,-4.40017 3.71192,-8.34213 5.98047,-12.42968 0.47478,-0.85916 0.94956,-1.71833 1.43872,-2.60352 C 317.66785,214.26732 327.06317,199.38561 337,185 c 0.48227,-0.69948 0.96454,-1.39896 1.46143,-2.11963 12.12303,-17.54963 24.572,-34.758 38.16211,-51.2041 1.84257,-2.2439 3.64108,-4.52148 5.43896,-6.80127 7.70037,-9.64164 15.84722,-18.90604 24.23438,-27.953125 1.7925,-1.937564 3.57394,-3.885436 5.34375,-5.84375 8.8861,-9.821485 18.00801,-19.648538 28.14453,-28.199218 1.82694,-1.549835 3.61567,-3.126777 5.39844,-4.726563 27.46632,-24.497799 65.31578,-50.520383 103.6875,-49.4375 11.06089,1.008046 20.66575,4.313402 28.3789,12.472656 10.81924,13.094717 13.51824,29.632773 13.3125,46.1875 -0.004,0.749328 -0.008,1.498656 -0.0119,2.270691 -0.27677,39.141409 -4.72171,78.493449 -8.6131,117.416809 -0.11756,1.19079 -0.23513,2.38158 -0.35626,3.60845 -1.22971,12.34035 -2.66211,24.6276 -4.56561,36.88373 -0.15264,1.00447 -0.30528,2.00894 -0.46254,3.04384 C 573.04023,252.24819 562.75675,271.02481 548,287 c -0.61617,0.68578 -1.23234,1.37156 -1.86718,2.07812 C 518.08514,318.87038 475.45452,323.47722 437,325 c 1.22332,0.34031 2.44664,0.68062 3.70703,1.03125 29.86135,8.50918 62.34217,21.98293 79.01563,49.84765 8.408,15.84506 9.90162,33.18597 4.66016,50.33985 C 517.89551,444.58816 507.49337,459.10309 494,473 c -0.5688,0.59458 -1.13759,1.18916 -1.72363,1.80176 C 470.85394,497.14609 443.09144,519.03026 411,521.20312 391.00638,521.51553 374.90071,515.11041 360,502 c -0.84562,-0.66258 -1.69125,-1.32516 -2.5625,-2.00782 C 353.82143,497.03674 350.98803,493.57317 348,490 c -0.61875,-0.7193 -1.2375,-1.4386 -1.875,-2.17969 C 327.91924,466.01744 301,423.0005 301,394 c -0.66,0 -1.32,0 -2,0 -0.25197,0.98987 -0.25197,0.98987 -0.50903,1.99975 -1.84292,7.0194 -4.10191,13.78107 -6.67847,20.56275 -0.39654,1.04647 -0.79309,2.09295 -1.20166,3.17114 C 278.87022,450.3871 264.43314,477.758 241,501 c -0.57621,0.57363 -1.15242,1.14726 -1.74609,1.73828 -13.69935,12.7502 -31.10258,18.70197 -49.67578,18.46876 C 159.15789,519.44691 134.1662,500.28267 113,480 c -0.59458,-0.56204 -1.18916,-1.12407 -1.80175,-1.70313 C 94.100323,462.07193 79.600093,443.3337 74.000004,420 73.809222,419.233 73.618441,418.46601 73.421879,417.67578 70.748097,400.71707 74.087824,384.24362 84.00391,370.15234 103.27407,345.64235 133.22075,332.10714 163,325 c -0.86874,-0.0344 -1.73749,-0.0688 -2.63257,-0.10425 -38.74917,-1.64591 -75.996982,-7.43896 -105.367426,-34.89574 -0.745079,-0.66516 -1.490157,-1.33032 -2.257813,-2.01563 C 42.40135,278.33293 35.72624,265.75389 30,253.00001 c -0.48468,-1.0725 -0.96937,-2.145 -1.46875,-3.25 -2.89651,-7.20596 -4.29186,-14.395 -5.48828,-22.03907 -0.17237,-1.09393 -0.34475,-2.18787 -0.52235,-3.31495 -1.90074,-12.40162 -3.22567,-24.85043 -4.45812,-37.33348 -0.12401,-1.24044 -0.24802,-2.48086 -0.37579,-3.75885 C 9.62035,102.25974 9.62035,102.25974 9.4375,67.375 9.4285,66.669984 9.42,65.964967 9.4109,65.238587 9.25766,47.784242 13.29974,31.115437 25.54683,18.199219 59.69812,-12.41726 119.15574,29.086133 146.79932,51.456055 Z M 166,323 c 0,0.33 0,0.66 0,1 1.65,0 3.3,0 5,0 0,-0.33 0,-0.66 0,-1 -1.65,0 -3.3,0 -5,0 z m 263,0 c 0,0.33 0,0.66 0,1 1.65,0 3.3,0 5,0 0,-0.33 0,-0.66 0,-1 -1.65,0 -3.3,0 -5,0 z"
     fill="#FFFFFF"
     id="path1"
     style="fill:#000000;fill-opacity:1" />
</svg>
