<?xml version="1.0" encoding="UTF-8" standalone="no"?>
<svg
   version="1.1"
   width="500"
   height="500"
   id="svg1"
   xmlns="http://www.w3.org/2000/svg"
   xmlns:svg="http://www.w3.org/2000/svg">
  <defs
     id="defs1" />
  <path
     d="m 182,62 c 1.52039,2.161799 2.76712,4.183864 4,6.5 0.3474,0.631318 0.6948,1.262637 1.05273,1.913086 C 194,83.193187 194,83.193187 194,87 c 0.69859,-0.08564 1.39718,-0.171284 2.11694,-0.259521 C 232.77494,82.282033 269.36875,81.143984 306,87 c 0.33,-1.175625 0.66,-2.35125 1,-3.5625 1.56085,-4.720243 3.72784,-9.002743 6.0625,-13.375 0.35256,-0.662659 0.70512,-1.325317 1.06836,-2.008057 C 315.57205,65.402124 316.85428,63.145715 319,61 c 10.00693,0.394643 20.38903,3.942392 30.0625,6.4375 0.84133,0.216039 1.68267,0.432078 2.5495,0.654663 12.59936,3.249132 25.09185,6.783237 37.513,10.657837 0.71359,0.219936 1.42717,0.439872 2.16238,0.666473 C 418.70308,87.909625 428.33671,102.09915 442,126 c 0.69416,1.2056 0.69416,1.2056 1.40234,2.43555 39.10675,68.30433 53.60413,143.23556 52.62323,221.16815 -0.0227,2.12696 -0.029,4.25408 -0.0329,6.38116 -0.0911,15.44554 -0.0911,15.44554 -4.09424,20.85498 -2.52809,2.02603 -5.03334,3.58709 -7.90674,5.07276 -2.24018,1.22306 -4.31552,2.60045 -6.42529,4.03662 C 448.19059,405.9243 416.41243,421.14818 383,433 c -1.11262,0.40589 -2.22524,0.81179 -3.37158,1.22998 -1.06461,0.37657 -2.12921,0.75314 -3.22608,1.14111 -0.94496,0.3383 -1.88992,0.6766 -2.86352,1.02515 -2.72466,0.64795 -3.994,0.74011 -6.53882,-0.39624 -1.39697,-1.49609 -1.39697,-1.49609 -2.66406,-3.4375 -0.71652,-1.0833 -0.71652,-1.0833 -1.44751,-2.18848 C 362.389,429.5906 361.88957,428.80717 361.375,428 c -0.52199,-0.80147 -1.04398,-1.60295 -1.58179,-2.42871 C 354.60668,417.53779 349.66162,409.3493 345,401 c -0.60715,-1.06734 -1.2143,-2.13469 -1.83984,-3.23438 C 342,395 342,395 342.13989,392.9707 c 1.22256,-2.80115 2.6588,-3.14014 5.46167,-4.26758 0.95898,-0.39783 1.91797,-0.79567 2.90601,-1.20556 1.02875,-0.4117 2.0575,-0.82339 3.11743,-1.24756 9.44695,-3.92614 18.47406,-8.21598 27.375,-13.25 -3.47736,-3.78035 -3.47736,-3.78035 -8,-6 -2.70917,1.04457 -5.30276,2.16541 -7.9375,3.375 C 345.53431,378.93711 324.91997,384.96728 304,389 c -1.1546,0.22744 -1.1546,0.22744 -2.33252,0.45947 -55.88277,10.73325 -116.47864,3.30968 -168.46436,-19.69726 -0.88043,-0.38688 -1.76085,-0.77376 -2.66796,-1.17237 -0.77594,-0.35844 -1.55187,-0.71688 -2.35132,-1.08618 -2.21447,-0.72783 -2.21447,-0.72783 -4.3501,0.3501 -2.20897,1.50401 -2.20897,1.50401 -4.83374,4.14624 3.38213,2.86689 6.63712,4.97966 10.64062,6.875 1.07122,0.51047 2.14243,1.02094 3.2461,1.54687 1.10988,0.52079 2.21976,1.04157 3.36328,1.57813 1.09441,0.52078 2.18883,1.04156 3.31641,1.57812 6.10622,2.89589 12.24032,5.71705 18.43359,8.42188 -0.58167,5.01814 -2.86946,8.86538 -5.3125,13.1875 -0.43643,0.7794 -0.87286,1.5588 -1.32251,2.36182 C 145.57248,417.72465 139.16197,427.72586 132,437 89.545436,428.5354 47.79304,404.26613 12.89868,379.33813 c -1.58265,-1.1154 -3.21601,-2.15842 -4.85962,-3.18188 -3.0286,-3.20266 -3.08784,-6.50449 -3.35156,-10.71875 -0.0699,-0.92257 -0.13986,-1.84513 -0.21191,-2.79565 -4.90332,-77.32382 9.97488,-152.71162 45.51953,-221.6897 0.6715,-1.3045 1.3388,-2.61116 2.00195,-3.91992 4.6948,-9.25806 9.81156,-18.21641 15.19043,-27.09473 0.58217,-0.96366 1.16435,-1.92731 1.76416,-2.92017 C 70.60196,104.32263 72.29008,101.65718 74,99 74.46487,98.24606 74.92974,97.492119 75.40869,96.715332 81.92642,86.946746 93.864773,84.389747 104.5,80.875 c 0.69299,-0.231226 1.38598,-0.462451 2.09998,-0.700684 18.4753,-6.133038 37.33202,-10.963258 56.22204,-15.633789 2.05417,-0.509801 4.10532,-1.030562 6.1565,-1.552246 1.15693,-0.284883 2.31386,-0.569765 3.50585,-0.863281 0.98195,-0.244922 1.96389,-0.489844 2.97559,-0.742188 C 178.07909,60.98808 179.56663,60.977531 182,62 Z M 137.6875,233.1875 C 126.90062,246.16719 124.65022,260.71629 126,277 c 2.38325,13.65733 9.80389,24.9076 21,33 9.89435,5.55146 19.80951,7.64019 31.0625,5.38672 13.31306,-3.93498 22.09074,-12.14293 28.625,-24.07422 6.43807,-13.56149 7.20703,-28.17682 2.3125,-42.3125 -5.55609,-13.12386 -12.87839,-21.84095 -26.3125,-27.375 -16.4311,-6.24654 -33.06927,-0.91157 -45,11.5625 z M 301,233 c -0.47953,0.47695 -0.95906,0.95391 -1.45312,1.44531 -8.79604,9.19586 -12.1137,22.72986 -11.85938,35.17578 1.27905,13.82974 6.04207,27.07427 16.6875,36.47657 10.08538,7.54902 19.92832,11.29967 32.625,9.90234 12.2634,-2.20814 21.70049,-9.06262 29,-19 8.0711,-13.41151 10.0236,-27.40368 7.34766,-42.73828 -3.51123,-12.58317 -10.66292,-22.90043 -21.82813,-29.79297 C 334.25298,215.25992 314.20934,217.95603 301,233 Z"
     fill="#FFFFFF"
     id="path1"
     style="fill:#000000;fill-opacity:1" />
</svg>
