<?xml version="1.0" encoding="UTF-8" standalone="no"?>
<svg
   version="1.1"
   width="743"
   height="743"
   id="svg10"
   xmlns="http://www.w3.org/2000/svg"
   xmlns:svg="http://www.w3.org/2000/svg">
  <defs
     id="defs10" />
  <path
     d="m 347,104 c 0.99,0.495 0.99,0.495 2,1 0.65383,2.08334 1.22205,4.19376 1.75,6.3125 4.90569,17.76509 14.94823,30.64571 30.25,40.6875 7.61392,4.29593 15.49581,7.05716 24,9 -1.75649,4.6859 -3.97919,9.10266 -6.21875,13.57031 -0.41737,0.83571 -0.83475,1.67141 -1.26477,2.53244 -0.88667,1.77402 -1.77435,3.54754 -2.66296,5.32059 -1.32392,2.64258 -2.64366,5.28721 -3.9629,7.93213 -4.71997,9.44326 -9.53354,18.82903 -14.47241,28.1597 -3.06071,5.78611 -6.02607,11.61249 -8.91821,17.48483 -3.80293,7.66528 -7.71646,15.25987 -11.73047,22.81641 -3.1836,6.01569 -6.24276,12.08767 -9.26953,18.18359 -3.80539,7.66408 -7.71642,15.25981 -11.73047,22.81641 -3.1836,6.01569 -6.24276,12.08767 -9.26953,18.18359 -3.80144,7.65611 -7.70482,15.24596 -11.71948,22.79224 -3.78656,7.14687 -7.38787,14.38255 -10.93872,21.64917 -2.66638,5.40493 -5.56214,10.50073 -8.8418,15.55859 -6.23355,-5.1588 -12.06592,-10.71238 -17.83691,-16.37695 -1.11609,-1.08922 -2.23927,-2.1712 -3.36915,-3.2461 -1.64628,-1.56743 -3.26864,-3.15646 -4.88769,-4.75195 -0.50817,-0.47518 -1.01635,-0.95036 -1.53992,-1.43994 -2.29536,-2.30889 -3.34731,-3.64394 -3.46325,-6.94312 1.51473,-4.47677 3.55535,-8.55433 5.74145,-12.73803 0.47679,-0.92846 0.95358,-1.85691 1.44481,-2.8135 1.56676,-3.04663 3.14494,-6.0872 4.72316,-9.12791 1.09748,-2.12915 2.19415,-4.25871 3.29004,-6.38867 2.22886,-4.32942 4.46195,-8.65661 6.69873,-12.98194 2.85781,-5.52809 5.70242,-11.06281 8.53857,-16.60205 0.41256,-0.80573 0.82512,-1.61146 1.25019,-2.4416 0.81617,-1.59414 1.63229,-3.1883 2.44836,-4.78249 2.03297,-3.96951 4.06958,-7.93715 6.10614,-11.90481 4.51667,-8.80032 9.03155,-17.60156 13.54541,-26.40332 1.24391,-2.4255 2.48792,-4.85093 3.73193,-7.27637 4.31708,-8.4176 8.63125,-16.83667 12.94141,-25.25781 C 343.87049,185.99569 354.40457,165.48237 365,145 c -3.66134,0.72003 -6.70068,2.22667 -10.02759,3.89233 -0.59429,0.2962 -1.18858,0.5924 -1.80089,0.89757 -1.9667,0.9815 -3.93046,1.96874 -5.89418,2.95619 -1.38351,0.69236 -2.76718,1.38442 -4.15098,2.07619 -2.91064,1.4561 -5.81991,2.91488 -8.72817,4.37572 -3.66916,1.84295 -7.34086,3.6808 -11.01349,5.51683 -12.84417,6.42235 -25.68034,12.84917 -38.35737,19.59729 -12.16288,6.44655 -24.54515,12.47629 -36.87071,18.60438 -19.48211,9.66874 -19.48211,9.66874 -38.7721,19.71338 -6.07077,3.2391 -12.22103,6.31166 -18.38452,9.37012 18.15149,3.15313 36.31135,6.24387 54.5,9.17578 0.80241,0.12942 1.60482,0.25884 2.43155,0.39218 7.38225,1.19009 14.76531,2.37519 22.14853,3.55924 4.11256,0.6597 8.22473,1.32182 12.33667,1.98537 2.28591,0.36809 4.57226,0.7333 6.85864,1.09844 1.38219,0.22288 2.76435,0.44591 4.14648,0.66912 1.20238,0.19286 2.40475,0.38572 3.64356,0.58442 C 300,250 300,250 303,251 c -0.57703,3.4321 -1.43299,6.23457 -3.00391,9.33594 -0.4075,0.8105 -0.81501,1.62099 -1.23486,2.45605 -0.43683,0.85239 -0.87366,1.70479 -1.32373,2.58301 -0.44457,0.87817 -0.88913,1.75635 -1.34717,2.66113 C 292.16909,275.74982 288.11277,283.3871 284,291 c -12.15764,-1.32187 -24.20607,-3.06428 -36.27344,-5.03906 -1.78449,-0.28899 -3.56905,-0.57759 -5.35367,-0.86582 -4.63844,-0.74988 -9.27624,-1.50366 -13.91384,-2.25876 -7.46924,-1.21594 -14.9391,-2.42795 -22.40963,-3.63587 -2.59896,-0.42115 -5.19742,-0.84533 -7.79585,-1.26973 -1.58239,-0.2565 -3.16479,-0.51289 -4.74722,-0.76914 -0.71992,-0.11842 -1.43983,-0.23683 -2.18157,-0.35884 C 188.5089,276.34918 185.85821,276 183,276 c 0.87613,0.87429 1.75227,1.74858 2.65495,2.64937 20.77756,20.73428 41.54997,41.47369 62.31604,62.21949 2.55357,2.55107 5.1072,5.10211 7.66085,7.65311 0.5084,0.50788 1.0168,1.01576 1.54062,1.53903 8.24203,8.23333 16.4876,16.46312 24.73446,24.69161 8.45618,8.43751 16.90859,16.87879 25.35748,25.32361 4.74814,4.74564 9.49804,9.4895 14.25229,14.22901 4.46933,4.45581 8.934,8.91623 13.39507,13.38031 1.64305,1.6425 3.28783,3.28327 4.93442,4.92223 2.23793,2.22806 4.46971,4.46212 6.69996,6.69786 0.66146,0.65564 1.32293,1.31127 2.00443,1.98678 C 353,445.77176 353,445.77176 353,448 c -3.98319,2.06371 -7.96676,4.12667 -11.95068,6.18896 -1.352,0.7 -2.70389,1.40019 -4.05567,2.10059 -0.65404,0.33886 -1.30807,0.67773 -1.98193,1.02686 -0.6459,0.33471 -1.2918,0.66942 -1.95728,1.01428 -1.89634,0.98032 -3.79562,1.95478 -5.69507,2.92908 -1.98153,1.02647 -3.95454,2.07022 -5.90625,3.15234 -4.83089,2.63792 -4.83089,2.63792 -7.92299,2.38929 -2.9239,-0.92612 -4.23167,-2.00699 -6.38716,-4.17068 -0.72878,-0.72184 -1.45757,-1.44369 -2.20845,-2.18741 -0.78454,-0.79735 -1.56908,-1.5947 -2.37739,-2.41621 -0.83805,-0.83586 -1.6761,-1.67171 -2.53954,-2.5329 -2.29469,-2.29277 -4.58023,-4.59422 -6.86187,-6.89997 -2.39614,-2.41748 -4.80326,-4.82397 -7.2091,-7.23179 -4.04323,-4.04968 -8.079,-8.10669 -12.10971,-12.16884 -5.15477,-5.19493 -10.32081,-10.37848 -15.49088,-15.55819 -4.4622,-4.47055 -8.91996,-8.94553 -13.37659,-13.42163 -0.95203,-0.95606 -1.90419,-1.91197 -2.85651,-2.86773 -3.14076,-3.15216 -6.27706,-6.30871 -9.41127,-9.46739 -1.17074,-1.17477 -1.17074,-1.17477 -2.36513,-2.37327 -4.04336,-4.08276 -7.90809,-8.25561 -11.66105,-12.60588 -2.71773,-3.08112 -5.61577,-5.97101 -8.52875,-8.86631 -0.64476,-0.6449 -1.28952,-1.2898 -1.95381,-1.95425 -2.10231,-2.10162 -4.20812,-4.19968 -6.31401,-6.2977 -1.46995,-1.46808 -2.93968,-2.93639 -4.4092,-4.40491 -3.84627,-3.84247 -7.69554,-7.68193 -11.54545,-11.52075 -3.93687,-3.92659 -7.87087,-7.85606 -11.80512,-11.78528 C 166.41555,320.37741 158.70879,312.68769 151,305 c 2.44084,-2.51467 4.96106,-4.41761 7.875,-6.375 3.77585,-2.61742 7.03418,-5.20004 10.125,-8.625 0.5182,-0.50273 1.03641,-1.00547 1.57031,-1.52344 4.18485,-4.29745 6.98448,-8.98168 9.67969,-14.28906 0.32911,-0.63913 0.65823,-1.27827 0.99731,-1.93677 4.50471,-9.22688 6.30123,-18.3334 6.19019,-28.56323 -0.009,-1.00547 -0.018,-2.01094 -0.0273,-3.04688 C 187.02002,223.79965 180.49196,208.35385 169,196 c 0,-0.66 0,-1.32 0,-2 0.78466,-0.39122 1.56932,-0.78244 2.37776,-1.18552 7.48565,-3.7327 14.97026,-7.46744 22.4538,-11.20436 3.84508,-1.91995 7.69051,-3.83918 11.53685,-5.7566 20.89634,-10.39189 20.89634,-10.39189 41.59981,-21.16025 6.91177,-3.66774 13.90524,-7.16979 20.90678,-10.66202 0.613,-0.30578 1.22599,-0.61156 1.85756,-0.92661 5.05948,-2.52273 10.12156,-5.04022 15.1837,-7.55758 4.4041,-2.19039 8.80726,-4.38266 13.20874,-6.57831 0.60671,-0.30264 1.21341,-0.60529 1.8385,-0.91711 9.73389,-4.86001 19.38905,-9.852 28.98998,-14.96883 3.68842,-1.95153 7.39885,-3.86053 11.10902,-5.77031 0.67059,-0.35038 1.34119,-0.70077 2.0321,-1.06177 1.60536,-0.81201 3.25249,-1.54051 4.9054,-2.25073 z"
     fill="#FFFFFF"
     id="path1"
     style="fill:#000000;fill-opacity:1" />
  <path
     d="m 152,306 c 0.23054,1.48151 0.23054,1.48151 0.46573,2.99295 3.73508,24.00211 7.47401,48.00362 11.217,72.0045 1.80997,11.60652 3.61868,23.21324 5.42445,34.82042 1.57341,10.1136 3.14915,20.22683 4.72774,30.33963 0.83622,5.35754 1.67124,10.71526 2.50347,16.07342 0.7826,5.03838 1.56831,10.07627 2.35646,15.11379 0.28941,1.85341 0.57765,3.70701 0.86468,5.5608 0.39069,2.52213 0.78546,5.04359 1.1813,7.56492 0.17072,1.11185 0.17072,1.11185 0.34489,2.24617 0.56933,3.75667 0.56933,3.75667 1.91428,7.2834 2.50141,-4.85344 5.00117,-9.70773 7.5,-14.5625 0.39083,-0.75926 0.78165,-1.51852 1.18433,-2.30078 5.18566,-10.07681 10.35423,-20.16219 15.50317,-30.25781 0.52372,-1.02671 1.04744,-2.05341 1.58704,-3.11123 2.57629,-5.05128 5.15098,-10.10339 7.72351,-15.1566 C 222.57207,422.69057 228.7358,410.82171 235,399 c 3.43353,1.93113 6.18678,3.93854 8.96094,6.73047 0.71929,0.72123 1.43859,1.44246 2.17968,2.18555 0.73735,0.74959 1.47469,1.49918 2.23438,2.27148 1.09441,1.09538 1.09441,1.09538 2.21094,2.21289 4.12618,4.15934 8.08571,8.41312 11.89306,12.86646 1.44709,1.64893 2.9519,3.20079 4.521,4.73315 -1.44674,4.78353 -3.45886,9.11815 -5.76172,13.53516 -0.37911,0.73588 -0.75822,1.47176 -1.14882,2.22995 -1.25514,2.43447 -2.51611,4.86587 -3.77696,7.29739 -0.88038,1.70555 -1.76026,3.41137 -2.63965,5.11743 -1.39655,2.70935 -2.79337,5.41856 -4.19168,8.127 -5.25484,10.18048 -10.46645,20.38297 -15.67664,30.58635 -1.54595,3.02743 -3.0925,6.05455 -4.63925,9.08157 C 226.77652,510.64973 224.38814,515.3248 222,520 c 3.44737,-1.14912 6.59272,-2.72663 9.83203,-4.35132 0.69168,-0.34496 1.38337,-0.68993 2.09601,-1.04535 2.29583,-1.14571 4.59018,-2.29435 6.88446,-3.44317 1.60923,-0.80428 3.21853,-1.60845 4.82788,-2.41249 3.3868,-1.69267 6.77288,-3.38678 10.15845,-5.0819 4.283,-2.14431 8.56777,-4.28508 12.85307,-6.42481 21.38696,-10.65036 21.38696,-10.65036 42.57906,-21.68064 6.67915,-3.54917 13.4384,-6.93467 20.20654,-10.31032 0.59137,-0.29497 1.18273,-0.58994 1.79202,-0.89385 4.86953,-2.42776 9.74166,-4.85027 14.61386,-7.27265 19.22797,-9.55884 19.22797,-9.55884 38.28211,-19.45823 8.63186,-4.57693 17.35263,-8.97517 26.0874,-13.35183 2.84336,-1.42667 5.68236,-2.86181 8.52148,-4.29688 1.81745,-0.91198 3.63515,-1.82345 5.45313,-2.73437 0.84361,-0.42798 1.68722,-0.85596 2.5564,-1.29691 0.77932,-0.38816 1.55863,-0.77632 2.36157,-1.17624 0.68215,-0.3429 1.36431,-0.6858 2.06714,-1.03909 C 435,413 435,413 438,413 c 0.86048,5.30097 1.71479,10.60289 2.56348,15.90576 0.28933,1.80236 0.58033,3.60444 0.87304,5.40625 0.42141,2.59583 0.83676,5.19257 1.25098,7.78955 0.13124,0.80024 0.26249,1.60047 0.39771,2.42496 0.66453,4.20618 1.0583,8.1981 0.91479,12.47348 -0.56695,0.28085 -1.13389,0.56171 -1.71802,0.85107 -2.69934,1.33895 -5.39689,2.68145 -8.09448,4.02393 -0.8901,0.44086 -1.7802,0.88172 -2.69727,1.33594 -5.31968,2.65064 -10.59958,5.3661 -15.85026,8.1503 -13.50759,7.16223 -27.19669,13.95009 -40.88802,20.75253 C 359.05413,499.91644 359.05413,499.91644 343.5,508 c -12.45758,6.61826 -25.11585,12.83755 -37.74805,19.11377 -12.28457,6.10707 -24.51799,12.28384 -36.63818,18.71143 -5.35569,2.83919 -10.7554,5.58738 -16.17627,8.2998 -0.94682,0.47953 -1.89363,0.95906 -2.86914,1.45312 -0.90041,0.45118 -1.80082,0.90235 -2.72852,1.36719 -0.79027,0.39719 -1.58055,0.79439 -2.39477,1.20362 C 243,559 243,559 241,559 c 0,0.66 0,1.32 0,2 1.18811,0.075 1.18811,0.075 2.40022,0.15145 7.8233,0.54082 15.48163,1.48459 23.21575,2.76286 1.78432,0.28818 1.78432,0.28818 3.60469,0.58218 3.23453,0.52346 6.46825,1.05164 9.70166,1.58196 3.45126,0.5648 6.90354,1.12324 10.35571,1.6824 6.57765,1.06635 13.15442,2.13807 19.73086,3.21187 8.00611,1.30701 16.01322,2.60778 24.02041,3.90814 2.86313,0.465 5.72626,0.93004 8.58938,1.39511 0.70496,0.11451 1.40992,0.22901 2.13624,0.34699 4.94379,0.80317 9.88731,1.60797 14.83074,2.41333 13.21903,2.15289 26.43971,4.29376 39.66678,6.39682 1.18449,0.18849 2.36898,0.37699 3.58936,0.5712 5.51357,0.87695 11.02758,1.75091 16.5424,2.61997 1.91727,0.30412 3.83454,0.60831 5.75179,0.91259 0.86426,0.13506 1.72853,0.27013 2.61899,0.40929 3.18223,0.50684 6.18206,1.03285 9.24502,2.05384 -0.78769,5.4564 -2.35174,10.45698 -4.0625,15.68359 -1.77214,6.26894 -2.07618,12.29751 -2,18.75391 0.0212,2.52083 0.042,5.04166 0.0625,7.5625 -19.92636,-2.53031 -39.73935,-5.76979 -59.56826,-8.9582 -4.84561,-0.77859 -9.6917,-1.55423 -14.53773,-2.33021 -9.14045,-1.46407 -18.2805,-2.93073 -27.42038,-4.39836 -10.42079,-1.67317 -20.84204,-3.34341 -31.26333,-5.01341 C 276.80635,609.86978 255.40298,606.43611 234,603 c -1.09808,-3.73613 -0.70927,-5.38648 0.8125,-9 6.21588,-16.13117 5.23876,-33.34099 -1.0625,-49.3125 -3.04314,-6.73905 -6.66852,-13.64407 -11.96484,-18.875 C 220,524 220,524 220,522 c -0.55559,-0.25137 -1.11117,-0.50273 -1.68359,-0.76172 -2.6945,-1.4404 -4.9585,-3.18646 -7.37891,-5.05078 -14.28352,-10.4569 -32.0206,-14.99925 -49.5625,-12.5 -4.93483,0.8937 -9.54505,2.26978 -14.27344,3.89453 -0.68667,0.23256 -1.37333,0.46511 -2.08081,0.70471 -1.67473,0.56772 -3.34791,1.14001 -5.02075,1.71326 -6.8515,-42.13513 -13.52491,-84.29592 -20.07329,-126.47915 -0.95411,-6.14505 -1.91072,-12.2897 -2.86785,-18.43428 -1.0522,-6.75526 -2.1027,-13.51079 -3.15242,-20.26643 -0.44042,-2.83418 -0.88145,-5.66827 -1.32298,-8.50228 -0.60655,-3.89377 -1.21062,-7.78792 -1.81442,-11.68212 -0.18065,-1.15775 -0.36131,-2.31551 -0.54744,-3.50834 -0.16224,-1.04907 -0.32449,-2.09813 -0.49165,-3.17898 -0.14187,-0.91316 -0.28375,-1.82633 -0.42992,-2.76716 C 109,313 109,313 109,311 c 1.05316,0.0348 2.10633,0.0696 3.19141,0.10547 11.06425,0.25175 22.26507,10e-4 32.48828,-4.77344 C 148.11111,304.95543 148.71102,304.9298 152,306 Z"
     fill="#FFFFFF"
     id="path2"
     style="fill:#000000;fill-opacity:1" />
  <path
     d="m 476,125 c 3.49088,1.497 5.74505,3.49589 8.42012,6.17288 0.87887,0.87468 1.75774,1.74935 2.66324,2.65053 0.96621,0.97169 1.93231,1.94348 2.89833,2.91536 1.02328,1.02221 2.04699,2.04398 3.0711,3.06535 2.77954,2.77469 5.55278,5.55559 8.32482,8.33777 2.9069,2.9157 5.81909,5.82612 8.73059,8.73723 4.89337,4.89431 9.78286,9.79248 14.66988,14.69315 5.63609,5.65177 11.27735,11.29835 16.92166,16.94192 6.02146,6.02078 12.03909,12.04537 18.05562,18.07107 1.72655,1.72868 3.45381,3.45665 5.18122,5.18446 2.72659,2.7276 5.45059,5.45777 8.17269,8.18985 0.99438,0.99728 1.98958,1.99374 2.98571,2.98928 4.98079,4.97899 9.85889,9.98671 14.42765,15.34905 2.48042,2.85773 5.161,5.50943 7.84846,8.17085 0.5672,0.56578 1.13439,1.13156 1.71877,1.71448 1.78017,1.77466 3.56383,3.54577 5.34764,5.31677 1.22094,1.21591 2.44164,2.43206 3.66211,3.64844 2.96413,2.95321 5.93138,5.90325 8.90039,8.85156 -1.18156,3.54467 -1.90645,3.81311 -5,5.6875 -14.78715,9.55297 -25.32842,24.02117 -29.46484,41.28516 -3.53604,20.00312 0.26158,37.75211 11.23047,54.96875 C 596,370 596,370 597,373 c 2.00016,1.20882 2.00016,1.20882 4,2 -1,3 -1,3 -3.19873,4.37524 -0.96309,0.46528 -1.92618,0.93055 -2.91846,1.40992 -1.07089,0.52481 -2.14177,1.04962 -3.24511,1.59033 -1.73879,0.83507 -1.73879,0.83507 -3.5127,1.68701 -1.81516,0.88608 -3.62838,1.77605 -5.44141,2.6665 -1.21238,0.59544 -2.42527,1.18984 -3.63867,1.78321 -4.65082,2.27811 -9.23343,4.66214 -13.79492,7.11279 -10.48153,5.59709 -21.1414,10.84358 -31.78027,16.133 -10.2414,5.09204 -20.4655,10.19083 -30.46973,15.74005 -1.63692,0.89096 -3.3143,1.70714 -5,2.50195 -0.66,-0.33 -1.32,-0.66 -2,-1 -0.60869,-2.74406 -1.09213,-5.42425 -1.50781,-8.19922 -0.13035,-0.8278 -0.2607,-1.65561 -0.39499,-2.5085 -0.27478,-1.75717 -0.54517,-3.51502 -0.81156,-5.27348 -0.40653,-2.6792 -0.8273,-5.35586 -1.25048,-8.03247 -0.26518,-1.70755 -0.52953,-3.41523 -0.79297,-5.12305 -0.12497,-0.7971 -0.24994,-1.5942 -0.3787,-2.41545 C 490.23399,393.25494 489.86494,389.25513 490,385 c 0.56695,-0.28085 1.13389,-0.56171 1.71802,-0.85107 2.69934,-1.33895 5.39689,-2.68145 8.09448,-4.02393 0.8901,-0.44086 1.78019,-0.88172 2.69727,-1.33594 5.31774,-2.64967 10.59571,-5.36412 15.84443,-8.14738 12.48252,-6.61903 25.11818,-12.91793 37.7708,-19.20418 4.31624,-2.14485 8.63116,-4.29235 12.94531,-6.44141 0.98518,-0.48844 1.97035,-0.97687 2.98539,-1.48011 1.34939,-0.67222 1.34939,-0.67222 2.72604,-1.35802 0.79318,-0.39398 1.58637,-0.78795 2.40359,-1.19386 1.78065,-0.83252 1.78065,-0.83252 2.81467,-1.9641 -22.04165,-3.52097 -44.08331,-7.04179 -66.125,-10.5625 -0.81577,-0.1303 -1.63153,-0.2606 -2.47202,-0.39485 C 467.60244,321.04641 423.80172,314.05133 380,307.0625 c -1.50115,-0.23952 -1.50115,-0.23952 -3.03263,-0.48388 C 365.31161,304.71889 353.65582,302.85933 342,301 c 0.6425,-3.42594 1.42638,-6.22152 3.00391,-9.33594 0.4075,-0.8105 0.81501,-1.62099 1.23486,-2.45605 0.43683,-0.85239 0.87366,-1.70479 1.32373,-2.58301 0.44457,-0.87817 0.88913,-1.75635 1.34717,-2.66113 C 352.83055,276.25089 356.87469,268.60533 361,261 c 11.1887,0.54202 22.05957,2.124 33.09985,3.92749 1.88234,0.30284 3.76477,0.60514 5.64728,0.90695 5.07308,0.81487 10.14493,1.63719 15.21659,2.46089 5.3303,0.86435 10.66173,1.72164 15.99305,2.57969 10.09255,1.6254 20.1841,3.25693 30.27529,4.89078 12.567,2.0344 25.13523,4.06115 37.70349,6.08772 4.41447,0.71185 8.82894,1.42377 13.24339,2.13575 1.0705,0.17266 2.141,0.34531 3.24393,0.5232 7.3461,1.18504 14.69186,2.37213 22.03747,3.56015 2.92996,0.47369 5.85992,0.94735 8.78989,1.42101 2.67999,0.43342 5.35989,0.86737 8.03979,1.30134 3.87993,0.6279 7.76047,1.2519 11.64151,1.87288 1.98487,0.31873 3.96902,0.64191 5.95313,0.96528 1.1512,0.18412 2.3024,0.36823 3.48849,0.55793 1.46607,0.23706 1.46607,0.23706 2.96175,0.47891 3.04454,0.43244 3.04454,0.43244 7.6651,0.33003 -45.21,-45.21 -90.42,-90.42 -137,-137 1.79901,13.19274 3.62066,26.34184 5.72474,39.48337 0.42724,2.67064 0.85082,5.34185 1.2735,8.01323 1.19901,7.57495 2.40282,15.14912 3.61236,22.72239 0.7472,4.68009 1.48916,9.36098 2.22785,14.04241 0.27987,1.76688 0.56174,3.53344 0.8457,5.29966 0.39496,2.45733 0.78325,4.91563 1.1701,7.37424 0.11684,0.71638 0.23369,1.43277 0.35408,2.17086 0.67866,4.36858 0.8969,8.49117 0.79167,12.89384 -9.72685,-0.54701 -19.22682,-1.89305 -28.8125,-3.5625 -1.38598,-0.23687 -2.77204,-0.4732 -4.1582,-0.70898 C 428.68526,265.15758 425.34224,264.58133 422,264 c -1.81465,-4.90597 -2.72574,-9.68913 -3.51221,-14.83179 -0.13684,-0.86745 -0.27368,-1.7349 -0.41467,-2.62864 -0.44888,-2.85485 -0.89016,-5.71081 -1.33093,-8.56691 -0.31073,-1.99253 -0.62176,-3.985 -0.93308,-5.97744 -0.65054,-4.17131 -1.29731,-8.34318 -1.94143,-12.51548 -0.82449,-5.3385 -1.65841,-10.67548 -2.49518,-16.01207 -0.64383,-4.11299 -1.28258,-8.22676 -1.91983,-12.34078 -0.30543,-1.96776 -0.61243,-3.93528 -0.92106,-5.90254 -0.43122,-2.75362 -0.85558,-5.50822 -1.27819,-8.26317 -0.19165,-1.21046 -0.19165,-1.21046 -0.38718,-2.44537 C 406.17453,169.95151 405.87698,165.61669 406,161 c 1.18336,0.0232 2.36672,0.0464 3.58594,0.0703 12.35183,0.2592 12.35183,0.2592 24.41406,-2.07031 1.00031,-0.3068 2.00063,-0.61359 3.03125,-0.92969 C 454.51276,152.03503 466.32645,140.43652 476,125 Z"
     fill="#FFFFFF"
     id="path3"
     style="fill:#000000;fill-opacity:1" />
  <path
     d="m 431,322 c 9.72685,0.54701 19.22682,1.89305 28.8125,3.5625 1.38598,0.23687 2.77204,0.4732 4.1582,0.70898 3.34404,0.57094 6.68706,1.14719 10.0293,1.72852 1.83286,4.94553 2.73819,9.77432 3.53128,14.95969 0.14055,0.89125 0.2811,1.78251 0.42591,2.70078 0.46857,2.97945 0.92974,5.96 1.39095,8.9406 0.33483,2.13886 0.6701,4.27765 1.0058,6.41637 0.90945,5.80246 1.81251,11.6059 2.71444,17.40954 0.94387,6.06643 1.89361,12.13195 2.84272,18.19756 1.79613,11.48456 3.58698,22.96993 5.37595,34.4556 2.03703,13.0767 4.07995,26.15249 6.12336,39.22821 4.20307,26.89619 8.39875,53.79354 12.58959,80.69165 2.29868,-2.83632 4.42526,-5.47347 6.03955,-8.75439 0.34818,-0.69978 0.69637,-1.39956 1.0551,-2.12055 0.36322,-0.7451 0.72644,-1.4902 1.10066,-2.25787 0.38904,-0.78506 0.77808,-1.57012 1.17891,-2.37897 0.82786,-1.67178 1.65308,-3.34487 2.47585,-5.01916 2.13535,-4.34473 4.28995,-8.67991 6.4429,-13.01594 0.41736,-0.84174 0.83472,-1.68349 1.26472,-2.55075 2.88114,-5.80187 5.82456,-11.56493 8.87981,-17.27737 4.18572,-7.83304 8.14947,-15.76831 12.10107,-23.72168 3.48377,-6.99439 7.07545,-13.92173 10.74268,-20.82129 3.16776,-5.98129 6.20877,-12.01999 9.21875,-18.08203 3.77688,-7.60657 7.65058,-15.14939 11.64697,-22.64282 2.41056,-4.54356 4.73726,-9.11957 7.00537,-13.73609 0.53569,-1.08813 1.07138,-2.17626 1.62329,-3.29736 1.04538,-2.13161 2.08394,-4.26658 3.11475,-6.40527 0.47703,-0.97212 0.95407,-1.94423 1.44556,-2.9458 0.41814,-0.8636 0.83628,-1.72719 1.26709,-2.61695 1.50879,-2.54428 3.2286,-4.35798 5.39697,-6.35571 0.69223,0.56848 1.38445,1.13695 2.09766,1.72266 9.2209,7.2771 18.82475,12.52943 30.14209,15.87158 0.89351,0.26483 1.78702,0.52966 2.70761,0.80252 0.67737,0.19907 1.35474,0.39814 2.05264,0.60324 -5.42837,11.62073 -11.01858,23.13214 -16.90991,34.52515 -1.71861,3.3236 -3.43015,6.65083 -5.1424,9.97772 -0.9122,1.77219 -1.82476,3.54421 -2.73767,5.31604 -4.77398,9.26742 -9.51634,18.55093 -14.25696,27.83545 C 582.68905,507.46376 565.34539,541.2323 548,575 c -3.28044,-1.57608 -5.89049,-3.42742 -8.75,-5.6875 C 524.93205,558.77556 508.64961,554.33039 491,556 c -5.44677,0.90441 -10.71347,2.4221 -16,4 -2.33286,0.66832 -4.66613,1.33522 -7,2 -4.58814,-26.13265 -8.78563,-52.31917 -12.86816,-78.53509 -0.67779,-4.35067 -1.35713,-8.7011 -2.03639,-13.05154 -1.60006,-10.24833 -3.19728,-20.49709 -4.79272,-30.74613 -1.64187,-10.54692 -3.28915,-21.09298 -4.93889,-31.63867 -1.42588,-9.11614 -2.84825,-18.23282 -4.26784,-27.34994 -0.84403,-5.42034 -1.68942,-10.84046 -2.53832,-16.26005 -0.79371,-5.06814 -1.58305,-10.13696 -2.369,-15.20632 -0.28867,-1.85703 -0.57889,-3.71383 -0.87079,-5.57036 -0.39802,-2.53306 -0.7904,-5.06693 -1.18138,-7.60108 -0.11653,-0.73295 -0.23306,-1.4659 -0.35312,-2.22106 C 431.17652,329.84187 430.88558,326.02293 431,322 Z"
     fill="#FFFFFF"
     id="path4"
     style="fill:#000000;fill-opacity:1" />
  <path
     d="m 207,518 c 3.541,2.81089 6.79895,5.80993 10,9 0.63809,0.61488 1.27617,1.22977 1.93359,1.86328 11.83403,12.30844 15.57546,28.40444 15.48853,44.93701 C 234.22464,581.41584 233.04993,587.97273 230,595 c -0.4009,0.99902 -0.8018,1.99805 -1.21484,3.02734 -6.57913,14.81735 -19.0915,25.62046 -33.88282,31.90625 -16.86115,6.19528 -33.82311,5.42453 -50.29687,-1.32421 C 138.73058,625.80125 132.69878,622.58822 128,618 c 0,-0.66 0,-1.32 0,-2 -0.5891,-0.23719 -1.1782,-0.47438 -1.78516,-0.71875 -8.88542,-5.14007 -14.0609,-19.53066 -16.65625,-28.98828 -4.26778,-17.51882 -0.78742,-35.13877 8.27491,-50.47412 9.16437,-14.28937 24.28441,-23.61127 40.67822,-27.31104 C 175.46176,506.04028 192.61787,508.09719 207,518 Z"
     fill="#FFFFFF"
     id="path5"
     style="fill:#000000;fill-opacity:1" />
  <path
     d="m 537.94922,573.17187 c 15.28998,13.20605 22.28293,28.78802 24.33203,48.53906 0.64923,16.28487 -5.61356,32.63007 -16.40625,44.72657 -8.74914,9.20808 -19.54371,15.47508 -31.875,18.5625 -0.72961,0.19078 -1.45922,0.38156 -2.21094,0.57812 -18.12401,2.74145 -35.45252,-0.15317 -50.67187,-10.54687 C 448.42295,665.27188 438.70113,650.98555 436,635 c -1.04751,-12.32547 -1.03001,-24.5524 4,-36 0.60135,-1.49661 0.60135,-1.49661 1.21484,-3.02344 6.81703,-15.37288 19.95209,-26.36968 35.47266,-32.41406 21.34324,-6.84359 43.16217,-3.71957 61.26172,9.60937 z"
     fill="#FFFFFF"
     id="path6"
     style="fill:#000000;fill-opacity:1" />
  <path
     d="m 679,272 c 0.78504,0.39703 1.57008,0.79406 2.37891,1.20312 14.67102,7.98986 24.02457,21.07498 29.05859,36.73438 4.88379,17.85703 2.82397,35.02328 -6.08594,51.23047 -8.20338,13.90692 -21.32169,23.55956 -36.73047,28.17578 -0.86496,0.21656 -1.72992,0.43313 -2.62109,0.65625 -0.72961,0.19078 -1.45922,0.38156 -2.21094,0.57813 -20.31772,3.07326 -37.26655,-1.44944 -53.95312,-13.02735 C 608.23008,377.03902 607.62422,376.52727 607,376 c 0,-0.66 0,-1.32 0,-2 -0.85272,-0.31324 -0.85272,-0.31324 -1.72266,-0.63281 -9.32291,-5.59695 -14.44302,-20.24847 -17.38281,-30.05469 -4.08719,-17.04373 -0.44573,-34.22239 8.07813,-49.17969 9.35316,-14.45325 23.13776,-23.705 39.76562,-27.80859 C 650.29457,263.29766 665.82715,264.83711 679,272 Z"
     fill="#FFFFFF"
     id="path7"
     style="fill:#000000;fill-opacity:1" />
  <path
     d="m 158.75,192.6875 c 12.71643,10.06001 22.17073,25.03427 24.25,41.3125 1.28121,17.47856 -1.31379,33.56914 -12.17578,47.86328 -2.18693,2.4891 -4.44886,4.8278 -6.82422,7.13672 -0.61359,0.63422 -1.22719,1.26844 -1.85938,1.92187 -12.25258,11.8337 -28.3811,15.58724 -44.8684,15.50025 C 98.70902,305.94113 85.183707,298.18371 72.253906,285.25391 60.076019,272.06383 56.22219,254.45206 56.87256,237.02783 57.8595,221.32371 66.012648,205.94141 77.71875,195.59766 101.40632,176.86577 134.02148,174.0841 158.75,192.6875 Z"
     fill="#FFFFFF"
     id="path8"
     style="fill:#000000;fill-opacity:1" />
  <path
     d="m 452,41 c 15.14114,12.109099 24.26426,26.618355 27,46 1.54062,16.55223 -2.91138,32.67806 -13.20703,45.81641 -2.18208,2.49433 -4.43737,4.85355 -6.79297,7.18359 -0.51691,0.55043 -1.03383,1.10086 -1.56641,1.66797 -10.36592,10.09527 -26.53481,15.33431 -40.66015,15.41797 C 398.79978,156.70667 383.39627,150.81278 370.25,138.38281 356.69848,124.03138 352.12774,107.45763 352.65234,88.140625 353.43448,72.87917 360.48875,58.954388 371,48 393.18723,28.327539 426.86493,23.607108 452,41 Z"
     fill="#FFFFFF"
     id="path9"
     style="fill:#000000;fill-opacity:1" />
  <path
     d="m 396.33936,490.06616 c 3.16242,2.29855 5.64686,4.97187 8.23096,7.87524 6.99064,7.66061 14.27359,15.00875 21.60937,22.33594 0.591,0.59062 1.182,1.18124 1.7909,1.78975 3.67144,3.668 7.34668,7.33218 11.02307,10.99522 3.16675,3.15639 6.33055,6.31573 9.49463,9.4748 6.16774,6.15714 12.33866,12.31107 18.51171,18.46289 -1.17798,3.53396 -1.85348,3.77134 -4.9375,5.625 C 451.58027,573.41935 444.64011,581.62283 438,592 c -5.17656,-4.33008 -10.01312,-8.87465 -14.77124,-13.65772 -0.74229,-0.74214 -1.48458,-1.48429 -2.24937,-2.24893 -2.43171,-2.4324 -4.85986,-4.86831 -7.28798,-7.30429 -1.69371,-1.69558 -3.38765,-3.39094 -5.0818,-5.08609 -4.44254,-4.44635 -8.88207,-8.89569 -13.32097,-13.34567 -4.53645,-4.5467 -9.07575,-9.09055 -13.61481,-13.63465 C 372.77977,527.81789 363.88878,518.91005 355,510 c 3.01255,-3.22191 6.51177,-5.0027 10.40625,-6.97657 0.72111,-0.37071 1.44222,-0.74143 2.18518,-1.12338 1.52169,-0.78091 3.0448,-1.55906 4.56922,-2.33462 2.33375,-1.18758 4.66304,-2.38354 6.9917,-3.58106 1.48021,-0.7583 2.96067,-1.51613 4.4414,-2.27343 0.69694,-0.35729 1.39388,-0.71457 2.11194,-1.08268 7.68705,-3.90502 7.68705,-3.90502 10.63367,-2.5621 z"
     fill="#FFFFFF"
     id="path10"
     style="fill:#000000;fill-opacity:1" />
</svg>
