<?xml version="1.0" encoding="UTF-8" standalone="no"?>
<svg
   version="1.1"
   width="1013"
   height="1024"
   id="svg3"
   xmlns="http://www.w3.org/2000/svg"
   xmlns:svg="http://www.w3.org/2000/svg">
  <defs
     id="defs3" />
  <path
     d="m 602.04736,8.1179199 c 3.46492,0.7968585 6.93628,1.4120485 10.45264,1.9445801 4.51504,0.702755 8.71923,1.827655 13.0664,3.21875 2.48743,0.73465 4.94655,1.247339 7.4961,1.71875 3.99503,0.750242 7.72116,1.830422 11.53906,3.21875 1.98451,0.64642 4.00742,1.173559 6.03515,1.667969 4.93972,1.210826 9.73326,2.803101 14.55079,4.425781 0.92546,0.310503 1.85093,0.621006 2.80444,0.940918 10.18855,3.445094 20.15409,7.333913 30.06665,11.508301 1.90554,0.802198 3.81423,1.596958 5.72656,2.382812 C 716.36985,44.320355 728.93443,49.694375 741,56 c 0,0.66 0,1.32 0,2 0.90492,0.272637 0.90492,0.272637 1.82812,0.550781 4.28937,1.349077 7.685,2.543492 11.17188,5.449219 1.68474,0.973085 3.37066,1.944245 5.06494,2.900635 3.05017,1.732892 6.05408,3.54122 9.06006,5.349365 0.64163,0.38551 1.28326,0.771021 1.94433,1.168213 C 786.11686,83.077907 786.11686,83.077907 792,87 c 0,0.66 0,1.32 0,2 1.07314,0.386719 1.07314,0.386719 2.16797,0.78125 3.00363,1.292598 5.46708,2.846521 8.14453,4.71875 0.883,0.608438 1.76601,1.216875 2.67578,1.84375 0.66387,0.546563 1.32773,1.093125 2.01172,1.65625 0,0.66 0,1.32 0,2 0.55558,0.0825 1.11117,0.165 1.68359,0.25 3.07451,0.99546 4.9167,2.6613 7.37891,4.75 0.96164,0.80695 1.92328,1.61391 2.91406,2.44531 0.99773,0.84305 1.99547,1.6861 3.02344,2.55469 1.97602,1.62882 3.95507,3.25398 5.9375,4.875 0.87527,0.7193 1.75054,1.43859 2.65234,2.17969 1.53768,1.24111 3.11143,2.43963 4.72656,3.57812 0.55559,0.45117 1.11117,0.90235 1.6836,1.36719 0,0.66 0,1.32 0,2 0.72187,0.22688 1.44375,0.45375 2.1875,0.6875 3.39224,1.58305 5.2175,3.62097 7.8125,6.3125 6.72719,6.88046 6.72719,6.88046 13.875,13.3125 5.32897,4.56616 9.93073,9.8369 14.6289,15.03418 1.42015,1.56939 2.84719,3.13212 4.27735,4.69238 2.41777,2.64353 4.82294,5.29751 7.21875,7.96094 0.96679,1.07314 0.96679,1.07314 1.95312,2.16797 C 893,178.7538 893,178.7538 893,181 c 0.83144,0.29971 0.83144,0.29971 1.67968,0.60547 3.24587,1.9508 5.21224,4.72187 7.44532,7.70703 0.44215,0.56912 0.88429,1.13824 1.33984,1.72461 1.92716,2.53558 3.48856,4.84378 4.65234,7.81836 0.29133,0.70769 0.58266,1.41539 0.88282,2.14453 0.99,0.33 1.98,0.66 3,1 1.39521,1.95733 2.71858,3.96635 4,6 1.16435,1.61782 2.32896,3.23547 3.50244,4.84668 C 934,232.78579 934,232.78579 934,237 c 0.66,0 1.32,0 2,0 1.58593,2.37891 1.58593,2.37891 3.375,5.5625 0.58523,1.03254 1.17047,2.06508 1.77343,3.12891 0.61102,1.09183 1.22204,2.18367 1.85157,3.30859 2.56352,4.49121 2.56352,4.49121 5.13769,8.97632 C 956.688,272.89767 963.94374,288.33383 971,304 c 0.38736,0.85771 0.77472,1.71542 1.17382,2.59912 5.00763,11.12938 9.7662,22.33597 13.1504,34.07666 1.6208,5.57446 3.56075,11.02126 5.61328,16.44922 2.27079,6.20799 3.94925,12.54851 5.57129,18.94971 0.46184,1.81018 0.94079,3.61596 1.42089,5.42138 5.25052,20.15581 9.13342,40.49456 11.88282,61.12891 0.105,0.78805 0.2101,1.5761 0.3183,2.38803 0.6591,4.99133 1.3086,9.9835 1.8692,14.98697 0.09,0.77098 0.1796,1.54196 0.2722,2.3363 0.9151,8.73168 0.9643,17.47223 1.0364,26.24183 0.01,0.84059 0.015,1.68119 0.023,2.54726 0.056,6.37482 0.086,12.74958 0.1058,19.12461 0,0.93221 0.01,1.86441 0.01,2.82487 0.1018,33.15781 -0.963,65.78164 -8.7935,98.1722 -1.1883,5.00164 -2.0182,10.0619 -2.908,15.12402 -0.6873,3.34337 -1.6519,6.40236 -2.74604,9.62891 -0.46411,2.11935 -0.90016,4.24498 -1.3125,6.375 -1.86103,8.93485 -4.33686,17.84913 -7.78125,26.3125 -0.88626,2.26149 -1.39779,4.36728 -1.84375,6.75 -0.82461,3.91688 -2.23868,6.98781 -4.0625,10.5625 -0.46263,1.4715 -0.89714,2.95197 -1.3125,4.4375 -2.99535,10.39011 -7.4689,20.31112 -12.07032,30.07422 -1.17489,2.53425 -2.31364,5.06982 -3.42187,7.63281 -6.00063,13.85314 -12.66416,27.38291 -20.61328,40.23438 -3.68866,6.11134 -7.10258,12.38901 -10.58203,18.62109 -0.66,0 -1.32,0 -2,0 -0.26426,0.71801 -0.52852,1.43602 -0.80078,2.17578 -3.2574,7.67133 -8.61707,14.55222 -13.42969,21.32031 -1.25112,1.77034 -2.48092,3.55584 -3.69531,5.35157 -0.62262,0.91652 -1.24524,1.83304 -1.88672,2.77734 -0.56332,0.83789 -1.12664,1.67578 -1.70703,2.53906 -0.73284,0.90879 -0.73284,0.90879 -1.48047,1.83594 -0.66,0 -1.32,0 -2,0 -0.23848,0.71027 -0.47696,1.42055 -0.72266,2.15234 -1.48383,3.308 -3.37393,5.64642 -5.71484,8.41016 -3.22042,3.80408 -3.22042,3.80408 -6.22266,7.77734 -0.66322,0.82178 -0.66322,0.82178 -1.33984,1.66016 -0.66,0 -1.32,0 -2,0 -0.22688,0.72188 -0.45375,1.44375 -0.6875,2.1875 -1.58386,3.39398 -3.63372,5.19487 -6.3125,7.8125 -1.82605,1.97489 -3.64276,3.95624 -5.45313,5.94531 -6.01852,6.56236 -12.24117,12.90237 -18.54834,19.18653 -1.76502,1.75959 -3.52454,3.52456 -5.28369,5.29004 -13.57013,13.58107 -13.57013,13.58107 -17.71484,16.57812 -0.66,0 -1.32,0 -2,0 -0.33,0.99 -0.66,1.98 -1,3 -2.04688,1.91016 -2.04688,1.91016 -4.75,4.0625 -0.98356,0.78633 -1.96711,1.57266 -2.98047,2.38281 -3.98377,3.12619 -7.99452,6.2182 -12.02832,9.27954 -2.20144,1.67476 -4.28249,3.31643 -6.24121,5.27515 -0.99,0 -1.98,0 -3,0 -0.33,0.99 -0.66,1.98 -1,3 -2.65235,2.04297 -2.65235,2.04297 -5.9375,4.1875 -1.62229,1.07314 -1.62229,1.07314 -3.27735,2.16797 C 793.99996,935 793.99996,935 791.99996,935 c 0,0.66 0,1.32 0,2 -2.4082,1.6528 -4.81247,3.18507 -7.3125,4.6875 -1.47946,0.90447 -2.95863,1.80942 -4.4375,2.71484 -0.72832,0.44328 -1.45664,0.88656 -2.20703,1.34327 -2.64675,1.62511 -5.25114,3.31233 -7.85547,5.00439 -4.47399,2.86362 -9.07361,5.40882 -13.75782,7.91016 -2.60402,1.39164 -2.60402,1.39164 -5.61718,3.46484 -2.17707,1.45138 -4.19207,2.61288 -6.52344,3.75781 -0.70826,0.34982 -1.41652,0.69964 -2.14624,1.06006 -0.70713,0.34885 -1.41426,0.69771 -2.14282,1.05713 -1.22858,0.61837 -2.45648,1.23811 -3.6836,1.85938 -12.89806,6.50534 -25.82367,12.95269 -39.3164,18.14062 -1.77376,0.71795 -3.54747,1.43603 -5.32032,2.15625 -12.04281,4.87563 -24.23397,9.114 -36.67968,12.84375 -1.59012,0.4913 -3.17995,0.9835 -4.76954,1.4766 -8.6773,2.6728 -17.26645,5.154 -26.1875,6.8828 -3.11709,0.6153 -3.11709,0.6153 -6.40625,1.625 -3.98441,1.1127 -7.9355,1.8422 -12.01171,2.5156 -6.56639,1.1078 -6.56639,1.1078 -13.0625,2.5625 -4.87318,1.1281 -9.82906,1.5999 -14.79795,2.1 -4.29735,0.4358 -8.56928,0.9381 -12.84097,1.5799 -18.71753,2.7152 -37.34966,2.8132 -56.22023,2.7641 -2.6705,-0.01 -5.34098,-0.01 -8.01149,-0.01 -26.18039,-0.033 -51.86169,-0.8748 -77.69186,-5.4967 -1.20125,-0.2029 -2.40249,-0.4058 -3.64014,-0.6148 -7.18051,-1.2277 -14.27336,-2.701 -21.35986,-4.3852 -1.71945,-0.4066 -1.71945,-0.4066 -3.47364,-0.8213 -27.88867,-6.6614 -55.23282,-14.75593 -81.65918,-25.96386 -1.96823,-0.83395 -3.9426,-1.65353 -5.92187,-2.46093 -6.47606,-2.64481 -12.72683,-5.55469 -18.94531,-8.75391 -1.66562,-0.83542 -3.3323,-1.66875 -5,-2.5 -0.83274,-0.41766 -1.66547,-0.83531 -2.52344,-1.26562 -1.58437,-0.78969 -3.17259,-1.5717 -4.76563,-2.34375 -11.5663,-5.64776 -22.75331,-12.14625 -33.71093,-18.89063 -0.57686,-0.35143 -1.15371,-0.70286 -1.74805,-1.06494 -9.10212,-5.55137 -17.89994,-11.38321 -26.50781,-17.67188 -1.80418,-1.30666 -3.62299,-2.59022 -5.44727,-3.86865 -5.80328,-4.07517 -11.47164,-8.14725 -16.64844,-13.01953 -1.59106,-1.44841 -1.59106,-1.44841 -3.54687,-2.25 -2.9099,-1.55772 -4.7966,-3.76374 -7.10156,-6.125 -2.46364,-2.22971 -4.98127,-4.3954 -7.5,-6.5625 -0.65098,-0.56396 -1.30196,-1.12793 -1.97266,-1.70898 -2.78887,-2.40858 -5.57091,-4.76194 -8.49609,-7.00586 -0.67032,-0.56848 -1.34063,-1.13696 -2.03125,-1.72266 0,-0.66 0,-1.32 0,-2 -0.63938,-0.26812 -1.27875,-0.53625 -1.9375,-0.8125 -2.0625,-1.1875 -2.0625,-1.1875 -3.0625,-4.1875 -0.66,-0.33 -1.32,-0.66 -2,-1 -2,-1 -2,-1 -3,-4 -0.66,-0.33 -1.32,-0.66 -2,-1 -2,-1 -2,-1 -3,-4 -0.66,-0.33 -1.32,-0.66 -2,-1 -2,-1 -2,-1 -3,-4 -0.66,-0.33 -1.32,-0.66 -2,-1 -2,-1 -2,-1 -3,-4 -0.99,-0.33 -1.98,-0.66 -3,-1 -1.43803,-1.59106 -2.80326,-3.2486 -4.125,-4.9375 -2.98013,-3.73958 -6.00577,-7.36236 -9.25,-10.875 -11.6057,-12.75818 -21.87486,-26.99169 -31.625,-41.1875 -0.43571,-0.62133 -0.87141,-1.24266 -1.32032,-1.88281 -2.67968,-3.87899 -2.67968,-3.87899 -2.67968,-6.11719 -0.66,0 -1.32,0 -2,0 -1.19141,-1.66016 -1.19141,-1.66016 -2.5625,-4.0625 -0.52852,-0.91137 -1.05703,-1.82273 -1.60157,-2.76172 -0.60586,-1.04801 -1.21171,-2.09601 -1.83593,-3.17578 -1.08833,-1.82353 -2.18468,-3.64207 -3.28199,-5.46021 -4.30852,-7.13961 -8.55829,-14.31228 -12.71801,-21.53979 -0.47438,-0.82371 -0.94875,-1.64742 -1.4375,-2.49609 -2.13501,-3.76804 -4.0493,-7.4984 -5.69532,-11.51172 -2.53258,-5.8181 -5.55833,-11.43589 -8.44921,-17.08203 -3.15402,-6.20424 -5.91614,-12.42017 -8.41797,-18.91016 -0.71949,-1.77767 -1.43909,-3.5553 -2.16089,-5.33203 -4.47476,-11.05114 -8.54004,-22.20605 -11.83911,-33.66797 -0.51844,-1.75071 -1.03928,-3.50071 -1.5625,-5.25 -0.24493,-0.82371 -0.48985,-1.64742 -0.74219,-2.49609 -0.57741,-1.8717 -1.22182,-3.72257 -1.88281,-5.56641 -0.82072,-2.71468 -0.97824,-4.87 -0.8125,-7.6875 3.73069,1.1829 7.32732,2.52646 10.91284,4.09424 2.52516,1.09584 5.06499,2.15351 7.60669,3.21045 1.06444,0.44287 2.12888,0.88574 3.22558,1.34204 1.07412,0.44658 2.14823,0.89316 3.25489,1.35327 12.25793,5.10064 24.51284,10.2072 36.74243,15.37549 3.90359,1.64616 7.81493,3.26091 11.75757,4.81201 3.19455,1.26144 6.31859,2.6241 9.4375,4.0625 10.76409,4.95271 21.74441,9.47458 32.76172,13.83203 7.19316,2.86994 14.31306,5.91783 21.42578,8.98047 5.59194,2.40269 11.21286,4.70639 16.875,6.9375 2.50212,0.99927 5.00313,2.00126 7.5039,3.00391 1.6515,0.65905 3.30513,1.31278 4.96094,1.96093 5.32971,2.09652 10.57732,4.30892 15.73047,6.8125 2.76828,1.30602 2.76828,1.30602 5.73437,1.91407 3.50583,0.98334 5.38822,1.80272 8.07032,4.30859 2.72262,5.78558 3.87395,12.20238 5.32617,18.396 3.29169,12.72072 10.52764,24.07945 17.72778,34.90869 2.94605,4.48113 2.94605,4.48113 2.94605,6.69531 0.99,0.33 1.98,0.66 3,1 0.33,0.99 0.66,1.98 1,3 0.68062,0.495 1.36125,0.99 2.0625,1.5 0.95906,0.7425 0.95906,0.7425 1.9375,1.5 0,0.99 0,1.98 0,3 0.63937,0.26813 1.27875,0.53625 1.9375,0.8125 2.0625,1.1875 2.0625,1.1875 3.0625,4.1875 1.30783,0.7154 2.64592,1.37654 4,2 1.28187,0.9588 2.53313,1.95994 3.75,3 0.61359,0.51563 1.22718,1.03125 1.85937,1.5625 1.39063,1.4375 1.39063,1.4375 1.39063,3.4375 0.57492,0.0993 1.14984,0.19852 1.74218,0.30078 2.70157,0.83665 4.2165,2.07613 6.38282,3.88672 7.96383,6.36326 16.54358,10.79677 25.875,14.8125 0.92425,0.42281 1.84851,0.84563 2.80078,1.28125 8.18862,3.63446 16.50408,5.72122 25.19922,7.71875 0.69093,0.18949 1.38187,0.37898 2.09375,0.57422 34.1905,7.63681 71.11621,-2.13411 100.57422,-19.41797 4.75607,-3.07779 9.18156,-6.50339 13.58984,-10.05469 2.74219,-2.10156 2.74219,-2.10156 5.04687,-3.20312 2.05989,-0.84187 2.05989,-0.84187 2.69532,-3.89844 1.97957,-1.69088 3.97945,-3.3583 6,-5 0.33,-0.66 0.66,-1.32 1,-2 0.66,0 1.32,0 2,0 0.40218,-0.95906 0.40218,-0.95906 0.8125,-1.9375 1.1875,-2.0625 1.1875,-2.0625 4.1875,-3.0625 0.36258,-1.32568 0.69166,-2.66067 1,-4 1.3125,-1.79687 1.3125,-1.79687 3,-3.75 8.77257,-10.9837 14.9743,-24.18576 20,-37.25 0.24234,-0.62326 0.48468,-1.24652 0.73437,-1.88867 6.31824,-16.8662 7.70667,-36.22457 7.26563,-54.11133 0.99,-0.33 1.98,-0.66 3,-1 0.60715,-0.60715 1.21429,-1.2143 1.83984,-1.83984 2.38952,-2.38952 4.83911,-3.96899 7.72266,-5.72266 3.78835,-2.26997 3.78835,-2.26997 7.08984,-5.15234 1.34766,-1.28516 1.34766,-1.28516 4.34766,-1.28516 0.33,-0.99 0.66,-1.98 1,-3 2.14453,-1.78906 2.14453,-1.78906 4.8125,-3.625 0.87269,-0.61102 1.74539,-1.22203 2.64453,-1.85156 2.54297,-1.52344 2.54297,-1.52344 4.80468,-2.04688 0.57364,-0.15726 1.14727,-0.31453 1.73829,-0.47656 0.33,-0.99 0.66,-1.98 1,-3 2.65234,-2.04297 2.65234,-2.04297 5.9375,-4.1875 1.62228,-1.07314 1.62228,-1.07314 3.27734,-2.16797 2.78516,-1.64453 2.78516,-1.64453 4.78516,-1.64453 0.33,-0.99 0.66,-1.98 1,-3 2.39843,-1.78906 2.39843,-1.78906 5.375,-3.625 0.97711,-0.61102 1.95421,-1.22203 2.96093,-1.85156 2.66407,-1.52344 2.66407,-1.52344 5.66407,-2.52344 0,-0.66 0,-1.32 0,-2 1.98437,-1.41016 1.98437,-1.41016 4.75,-3.0625 5.32392,-3.28991 10.29557,-6.88771 15.27343,-10.67578 7.02438,-5.33742 14.21148,-10.44197 21.44922,-15.48438 2.6736,-1.88019 5.32197,-3.79172 7.96485,-5.71484 0.90879,-0.66129 1.81757,-1.32258 2.7539,-2.00391 1.93113,-1.41544 3.85526,-2.84048 5.77344,-4.27343 0.96035,-0.71286 1.9207,-1.42571 2.91016,-2.16016 1.2955,-0.97066 1.2955,-0.97066 2.61718,-1.96094 2.4443,-1.62191 4.75088,-2.68579 7.50782,-3.66406 0,-0.66 0,-1.32 0,-2 1.64333,-1.0379 3.31243,-2.03568 5,-3 0.66,-0.66 1.32,-1.32 2,-2 0.99,0 1.98,0 3,0 0,-0.66 0,-1.32 0,-2 2.04687,-1.65625 2.04687,-1.65625 4.75,-3.5 0.88171,-0.60844 1.76343,-1.21687 2.67187,-1.84375 2.57813,-1.65625 2.57813,-1.65625 4.78516,-2.75391 1.96434,-0.87108 1.96434,-0.87108 3.73047,-2.83984 5.22555,-5.22556 9.68564,-5.50356 16.75,-5.625 1.90638,-0.0679 3.81264,-0.13959 5.71875,-0.21484 0.94875,-0.0359 1.8975,-0.0719 2.875,-0.10889 21.34509,-0.89321 42.23409,-6.40569 61.71875,-15.11377 0.82886,-0.34676 1.65773,-0.69352 2.51172,-1.05078 18.35273,-7.7831 36.57864,-19.58155 50.48828,-33.94922 10,-10 10,-10 12.375,-12.3125 5.48782,-5.61848 10.23418,-11.30294 14.36328,-18 0.41637,-0.55687 0.83273,-1.11375 1.26172,-1.6875 0.66,0 1.32,0 2,0 0.0619,-0.66 0.12375,-1.32 0.1875,-2 0.96905,-3.57805 2.6327,-6.15398 4.65625,-9.23047 1.20255,-1.7664 1.20255,-1.7664 2.15625,-3.76953 0.66,0 1.32,0 2,0 0.17015,-0.54527 0.34031,-1.09055 0.51562,-1.65234 2.14482,-6.67403 4.77206,-12.99551 7.96094,-19.23828 8.29151,-16.92318 12.08217,-36.42614 13.52344,-55.10938 0.10054,-1.19762 0.10054,-1.19762 0.20312,-2.41943 1.03471,-12.88657 0.58562,-25.29562 -0.91797,-38.12842 -0.25326,-2.17788 -0.47767,-4.35606 -0.6914,-6.53809 -2.49036,-22.46106 -11.04363,-44.0933 -21.59375,-63.91406 -0.44086,-0.8598 -0.88172,-1.71961 -1.33594,-2.60547 -2.82828,-5.36235 -6.30294,-10.10833 -9.99219,-14.91406 -1.55809,-2.31166 -2.07475,-3.82592 -2.67187,-6.48047 -1.98378,-1.28437 -1.98378,-1.28437 -4,-2 0,-0.99 0,-1.98 0,-3 -0.57879,-0.22945 -1.15758,-0.45891 -1.75391,-0.69531 -2.83208,-1.64507 -4.21101,-3.56725 -6.18359,-6.17969 -8.82551,-11.04993 -19.74006,-19.75691 -31.0625,-28.125 -0.65485,-0.50145 -1.30969,-1.00289 -1.98438,-1.51953 -5.00134,-3.751 -10.50599,-6.55518 -16.01562,-9.48047 -1.21965,-0.67154 -2.43836,-1.3448 -3.65625,-2.01953 -6.55296,-3.60426 -12.94086,-6.84649 -20.07422,-9.19141 -2.26953,-0.78906 -2.26953,-0.78906 -4.34375,-1.83203 -2.46426,-1.22463 -5.01356,-1.7684 -7.6814,-2.39477 -2.29647,-0.57531 -4.52526,-1.27365 -6.77954,-1.99585 -45.34897,-13.67714 -96.22237,-5.60692 -137.46484,16.43359 -3.37319,1.93829 -6.69191,3.95322 -10,6 -0.84305,0.49758 -1.6861,0.99516 -2.55469,1.50781 -2.76105,1.68486 -5.31161,3.56242 -7.89453,5.50391 -1.55078,0.98828 -1.55078,0.98828 -3.55078,0.98828 0,0.66 0,1.32 0,2 -1.65811,1.01413 -3.32689,2.01082 -5,3 -14.96668,12.66411 -28.90706,26.75291 -39.08277,43.58154 -0.92319,1.50416 -1.91441,2.96617 -2.91723,4.41846 -0.66,0 -1.32,0 -2,0 -0.34032,1.20656 -0.34032,1.20656 -0.6875,2.4375 -1.65052,4.47996 -3.95917,8.42091 -6.3125,12.5625 -3.86966,6.91118 -6.48951,14.3344 -9.18213,21.76074 -0.59129,1.6189 -1.19399,3.23366 -1.80371,4.84571 -2.28384,6.10241 -4.20689,12.16101 -5.63916,18.51855 -0.32509,1.42929 -0.32509,1.42929 -0.65674,2.88745 -1.27199,6.16154 -1.94869,12.19734 -2.23389,18.46802 -0.0342,0.72961 -0.0685,1.45922 -0.10373,2.21094 -0.15843,3.62162 -0.26638,7.23701 -0.30887,10.86181 -0.21098,8.71155 -1.60965,15.18011 -8.07177,21.44678 -0.66,0 -1.32,0 -2,0 -0.0851,0.54785 -0.17016,1.0957 -0.25782,1.66016 -0.98231,3.09687 -2.65893,5.19144 -4.61718,7.77734 -2.59042,3.43637 -4.93515,6.86087 -7.125,10.5625 -1.55774,2.41295 -3.15303,4.80039 -4.75,7.1875 -0.4403,0.65984 -0.88059,1.31968 -1.33423,1.99951 -3.08083,4.60302 -6.22429,9.15661 -9.44312,13.66455 -1.55931,2.20832 -1.55931,2.20832 -3.03906,4.92188 -0.47309,0.73476 -0.94617,1.46953 -1.43359,2.22656 -0.66,0 -1.32,0 -2,0 -0.26426,0.72961 -0.52852,1.45922 -0.80078,2.21094 -1.20405,2.80028 -2.59203,4.95817 -4.38672,7.41406 -2.49426,3.47964 -4.86273,6.99036 -7.125,10.625 -3.14133,4.99789 -6.5321,9.77184 -9.99097,14.55103 -3.17821,4.41367 -6.10903,8.9442 -8.9895,13.55835 -2.40502,3.72034 -5.03845,7.25675 -7.66797,10.82031 -2.81781,3.89742 -5.45599,7.90502 -8.10547,11.91797 -1.77403,2.66283 -3.58899,5.2881 -5.43359,7.90234 -3.25866,4.62137 -6.38781,9.32199 -9.51172,14.03516 -2.42293,3.61297 -4.92146,7.16795 -7.44531,10.71093 -1.62017,2.29758 -1.62017,2.29758 -3.11719,5.03907 -0.47051,0.73089 -0.94102,1.46179 -1.42578,2.21484 -0.66,0 -1.32,0 -2,0 -0.66,1.65 -1.32,3.3 -2,5 -0.5804,-0.001 -1.1608,-0.002 -1.75879,-0.003 -27.24868,0.12207 -62.93346,4.75516 -84.29199,23.83545 -3.18735,1.90985 -5.41332,1.01947 -8.94922,0.16797 -3.14822,-1.10997 -6.19488,-2.40713 -9.25,-3.75 -0.83975,-0.36126 -1.67949,-0.72252 -2.54468,-1.09473 -5.30073,-2.28993 -10.56416,-4.65742 -15.80689,-7.07714 -3.23089,-1.45233 -6.51267,-2.75429 -9.80859,-4.05079 -4.89146,-1.94035 -9.73582,-3.99557 -14.58984,-6.02734 -1.99985,-0.8337 -3.99985,-1.66704 -6,-2.5 -60,-25 -120,-50 -180,-75 -0.98743,-0.41121 -1.97485,-0.82242 -2.99219,-1.24609 -2.02666,-0.84488 -4.05269,-1.69127 -6.07813,-2.53907 -5.66555,-2.3691 -11.34338,-4.69082 -17.0664,-6.91796 -1.86328,-0.79688 -1.86328,-0.79688 -2.86328,-1.79688 -0.74418,-11.74688 0.55157,-23.1285 2.39868,-34.71313 0.41591,-2.61251 0.81181,-5.22748 1.20483,-7.84351 1.23743,-8.08998 2.59344,-16.0558 4.75464,-23.96118 0.6948,-2.68696 1.18534,-5.37041 1.64185,-8.10718 0.75217,-4.36262 1.84191,-8.48997 3.21875,-12.69531 0.67109,-2.30184 1.21429,-4.57291 1.72265,-6.91406 1.01763,-4.67451 2.21915,-9.28096 3.4961,-13.89063 0.20431,-0.75926 0.40863,-1.51852 0.61914,-2.30078 1.3074,-4.73272 2.96232,-9.08423 4.94336,-13.57422 0.46985,-1.46921 0.9108,-2.94821 1.3125,-4.4375 3.04657,-10.47959 7.21565,-20.65804 11.47265,-30.69531 0.83396,-1.96824 1.65354,-3.9426 2.46094,-5.92188 2.6448,-6.47606 5.55468,-12.72682 8.75391,-18.94531 0.83542,-1.66562 1.66874,-3.3323 2.5,-5 0.41765,-0.83273 0.83531,-1.66547 1.26562,-2.52344 0.78969,-1.58436 1.5717,-3.17259 2.34375,-4.76562 5.19377,-10.63656 11.11388,-20.95084 17.28125,-31.05078 1.3244,-2.18911 2.62032,-4.38986 3.90625,-6.60157 0.40477,-0.69021 0.80953,-1.38042 1.22656,-2.09155 0.80776,-1.37771 1.61,-2.75868 2.40625,-4.14307 0.96828,-1.64179 2.01303,-3.23803 3.07032,-4.82397 0.66,0 1.32,0 2,0 0.26554,-0.72961 0.53109,-1.45922 0.80468,-2.21094 1.19248,-2.78245 2.55642,-4.96102 4.32032,-7.41406 0.93586,-1.30711 0.93586,-1.30711 1.89062,-2.64062 0.65485,-0.90235 1.30969,-1.80469 1.98438,-2.73438 0.63422,-0.88172 1.26843,-1.76344 1.92187,-2.67187 10.65005,-14.73967 21.82284,-28.59331 34.0625,-42.03125 2.02989,-2.23603 2.02989,-2.23603 3.65625,-4.59375 0.4486,-0.56204 0.89719,-1.12407 1.35938,-1.70313 0.66,0 1.32,0 2,0 0.26812,-0.63937 0.53625,-1.27875 0.8125,-1.9375 1.1875,-2.0625 1.1875,-2.0625 4.1875,-3.0625 0.33,-0.66 0.66,-1.32 1,-2 1,-2 1,-2 4,-3 0.33,-0.66 0.66,-1.32 1,-2 1,-2 1,-2 4,-3 0.33,-0.66 0.66,-1.32 1,-2 1,-2 1,-2 4,-3 0.33,-0.66 0.66,-1.32 1,-2 1,-2 1,-2 4,-3 0.42539,-0.88365 0.42539,-0.88365 0.85937,-1.78516 1.56298,-3.03496 3.7196,-4.5469 6.39063,-6.65234 0.98484,-0.78504 1.96968,-1.57008 2.98437,-2.37891 0.91266,-0.72058 1.82531,-1.44117 2.76563,-2.18359 3.91108,-3.18362 7.54398,-6.45298 11,-10.125 2,-1.875 2,-1.875 5,-2.875 1.34919,-1.31728 2.67972,-2.65374 4,-4 1.95322,-1.5744 3.93444,-3.1145 5.9375,-4.625 1.01965,-0.77602 2.03929,-1.552031 3.08984,-2.351562 2.64027,-1.797184 4.96682,-2.993814 7.97266,-4.023438 0,-0.66 0,-1.32 0,-2 2.21901,-1.630914 4.43556,-3.140258 6.75,-4.625 1.38031,-0.900876 2.76052,-1.80192 4.14062,-2.703125 0.69287,-0.449238 1.38574,-0.898476 2.09961,-1.361328 3.77378,-2.460841 7.49493,-5.000241 11.22852,-7.521484 2.56994,-1.653137 5.18288,-3.190329 7.84424,-4.690918 2.13053,-1.207859 4.24314,-2.443827 6.35498,-3.684082 7.72311,-4.522457 15.41684,-8.983382 23.48046,-12.878907 2.47061,-1.222854 4.90051,-2.484822 7.32813,-3.789062 0.74749,-0.401382 1.49499,-0.802764 2.26514,-1.216309 1.4595,-0.786714 2.91701,-1.577151 4.37207,-2.37207 4.61096,-2.479967 9.20883,-4.386529 14.13623,-6.157715 1.36194,-0.586425 2.71791,-1.187309 4.0625,-1.8125 5.86086,-2.640388 11.83589,-4.992613 17.81494,-7.349121 2.2136,-0.874338 4.42387,-1.756793 6.63428,-2.63916 8.73349,-3.466702 17.44794,-6.61062 26.48828,-9.199219 1.57699,-0.465566 3.1538,-0.931762 4.73047,-1.398437 11.43439,-3.357284 22.91656,-6.393394 34.54736,-8.992676 1.80198,-0.403063 3.60249,-0.8128026 5.40137,-1.2294925 7.40136,-1.7000444 14.83783,-3.0893952 22.3208,-4.3793945 1.29518,-0.2328369 2.59037,-0.4656739 3.9248,-0.7055664 55.70812,-9.7532667 120.04237,-9.0087307 175.1226,3.8232663 z"
     fill="#FFFFFF"
     id="path1"
     style="fill:#000000;fill-opacity:1" />
  <path
     d="m 741,269 c 0,0.66 0,1.32 0,2 1.65,0.33 3.3,0.66 5,1 0,0.66 0,1.32 0,2 0.80438,0.37125 0.80438,0.37125 1.625,0.75 2.9574,1.55653 5.67224,3.28436 8.375,5.25 0,0.66 0,1.32 0,2 0.63937,0.26812 1.27875,0.53625 1.9375,0.8125 C 760,284 760,284 761,287 c 0.59297,0.12633 1.18594,0.25266 1.79687,0.38281 4.9987,1.40035 8.16661,7.65914 11.20313,11.61719 0.66387,0.82758 1.32773,1.65516 2.01172,2.50781 19.76513,25.57841 29.39001,60.20983 25.45703,92.35938 -2.81602,20.03424 -8.24335,41.97577 -20.96094,58.19531 -1.62906,1.9987 -1.62906,1.9987 -3.07812,4.6875 -0.4718,0.7425 -0.9436,1.485 -1.42969,2.25 -0.66,0 -1.32,0 -2,0 -0.26684,0.58395 -0.53367,1.16789 -0.80859,1.76953 C 767.40831,471.59625 755.42358,481.79805 745,488 c -1.73104,1.12212 -3.46013,2.24724 -5.1875,3.375 -27.6397,17.542 -61.89649,22.79202 -93.73828,15.77734 -16.04788,-3.70988 -30.44059,-9.41327 -44.05859,-18.76953 -1.83371,-1.25801 -3.69773,-2.44658 -5.57813,-3.63281 -0.80437,-0.5775 -1.60875,-1.155 -2.4375,-1.75 0,-0.66 0,-1.32 0,-2 -0.72187,-0.22688 -1.44375,-0.45375 -2.1875,-0.6875 -5.91303,-2.75941 -9.83683,-8.56431 -14.04297,-13.42188 -1.63817,-1.9697 -1.63817,-1.9697 -3.76953,-2.89062 -0.66667,-1.33333 -1.33333,-2.66667 -2,-4 -0.53625,-0.51563 -1.0725,-1.03125 -1.625,-1.5625 C 569,457 569,457 569,454 c -0.99,-0.33 -1.98,-0.66 -3,-1 -4.97515,-7.05009 -8.72291,-15.03982 -12,-23 -0.42152,-1.01063 -0.84305,-2.02125 -1.27734,-3.0625 C 542.55645,400.73403 541.81489,371.05651 549,344 c 0.17128,-0.66951 0.34257,-1.33901 0.51904,-2.02881 C 552.79182,329.60631 558.91766,317.62351 566,307 c 0.66,0 1.32,0 2,0 0.24621,-0.71672 0.49242,-1.43344 0.74609,-2.17188 C 573.88853,293.2296 586.49485,281.90719 597,275 c 0.66,0 1.32,0 2,0 0,-0.66 0,-1.32 0,-2 1.65,-0.33 3.3,-0.66 5,-1 0,-0.66 0,-1.32 0,-2 3.65494,-2.02203 7.32517,-4.01437 11,-6 1.18529,-0.66129 1.18529,-0.66129 2.39453,-1.33594 7.48688,-4.0049 15.46251,-6.37728 23.60547,-8.66406 1.25555,-0.35707 2.51109,-0.71414 3.80469,-1.08203 C 677.15318,245.06067 712.66604,252.76932 741,269 Z m -121,31 c 0,0.66 0,1.32 0,2 -0.71156,0.23203 -1.42313,0.46406 -2.15625,0.70312 C 610.30468,306.14127 604.00276,313.48125 599,320 c -0.76312,0.88688 -1.52625,1.77375 -2.3125,2.6875 -1.98223,2.23927 -1.98223,2.23927 -1.6875,5.3125 -0.66,0 -1.32,0 -2,0 -5.17777,9.08623 -9.52338,17.75463 -12,28 -0.2243,0.86883 -0.44859,1.73766 -0.67969,2.63281 -5.10869,24.00387 -1.1639,50.94729 12.16407,71.67578 C 601.39047,443.4095 601.39047,443.4095 613,454 c 0.66,0 1.32,0 2,0 0,0.66 0,1.32 0,2 22.11116,17.21023 46.50499,20.92143 73.77344,18.69141 C 698.35433,473.24014 708.17611,470.86792 716,465 c 1.16982,-0.45826 1.16982,-0.45826 2.36328,-0.92578 C 737.06776,456.45388 753.21991,436.13704 761,418 c 9.85458,-25.86114 9.96491,-53.38476 -1,-79 -1.87176,-3.74793 -3.86105,-7.39833 -6,-11 -0.66,0 -1.32,0 -2,0 -0.21527,-0.6832 -0.43055,-1.36641 -0.65234,-2.07031 -1.75546,-3.81622 -4.16683,-6.65137 -6.91016,-9.80469 -0.80256,-0.92982 -0.80256,-0.92982 -1.62134,-1.87842 C 738.63425,309.5038 734.18639,305.62293 729,302 c -0.825,-0.70125 -1.65,-1.4025 -2.5,-2.125 C 697.14595,277.85946 649.27938,277.60195 620,300 Z"
     fill="#FFFFFF"
     id="path2"
     style="fill:#000000;fill-opacity:1" />
  <path
     d="m 393,601 c 0.69464,0.29922 1.38929,0.59845 2.10498,0.90674 C 419.52207,612.75554 441.75264,633.07543 452,658 c 0.495,1.18336 0.99,2.36672 1.5,3.58594 11.08384,27.52088 10.68189,58.92401 -0.5,86.41406 -7.20225,15.44764 -18.08451,31.81794 -32,42 -0.66,0 -1.32,0 -2,0 0,0.66 0,1.32 0,2 -1.63058,1.05783 -3.30584,2.04733 -5,3 -1.70929,1.12355 -3.41758,2.24861 -5.125,3.375 -23.0657,14.51496 -51.94754,18.6665 -78.67969,13.69922 C 325.67016,811.04116 321.34253,809.62688 317,808 c -0.70834,-0.25121 -1.41668,-0.50241 -2.14648,-0.76123 C 308.24722,804.88516 302.43466,802.55235 297,798 c -2.67946,-1.24017 -2.67946,-1.24017 -5,-2 0,-0.66 0,-1.32 0,-2 -0.69352,-0.21398 -1.38703,-0.42797 -2.10156,-0.64844 -3.68935,-1.72037 -6.35907,-4.20125 -9.27344,-6.97656 -0.57363,-0.53834 -1.14727,-1.07669 -1.73828,-1.63135 C 274.64482,780.71938 270.69879,776.53102 267,772 c -0.80824,-0.91523 -1.61648,-1.83047 -2.44922,-2.77344 -2.69905,-3.23946 -4.54574,-6.68901 -6.36328,-10.47656 -0.46696,-0.93586 -0.46696,-0.93586 -0.94336,-1.89063 C 255,752.28231 255,752.28231 255,750 c 5.68052,1.47526 10.92969,3.5503 16.3125,5.875 1.69504,0.7233 3.39035,1.44596 5.08594,2.16797 0.80147,0.34208 1.60295,0.68417 2.42871,1.03662 3.27075,1.38547 6.56918,2.69612 9.87207,4.00244 5.92414,2.36362 11.81271,4.82055 17.64844,7.39453 17.21328,7.62743 17.21328,7.62743 35.65234,10.52344 1.50627,0.058 1.50627,0.058 3.04297,0.11719 17.23006,0.37054 32.504,-3.6542 46.95703,-13.11719 1.30711,-0.76377 1.30711,-0.76377 2.64062,-1.54297 2.47127,-1.40114 2.47127,-1.40114 4.54688,-3.64453 0.59812,-0.59813 1.19625,-1.19625 1.8125,-1.8125 0.66,0 1.32,0 2,0 0.26812,-0.63938 0.53625,-1.27875 0.8125,-1.9375 C 405,757 405,757 408,756 c 0.21656,-0.86625 0.21656,-0.86625 0.4375,-1.75 0.77096,-3.08382 2.57376,-4.76407 4.5625,-7.25 1.78042,-2.94108 3.3828,-5.96711 5,-9 0.35191,-0.58137 0.70383,-1.16273 1.06641,-1.76172 9.02722,-15.7534 9.17667,-37.04166 4.84082,-54.21338 C 419.1065,665.0937 408.24746,648.14328 393,639 c -0.33,-0.66 -0.66,-1.32 -1,-2 -5.07953,-3.40178 -10.65641,-5.78537 -16.33984,-7.97266 -2.86658,-1.10706 -5.7005,-2.2785 -8.53516,-3.46484 -1.00805,-0.42152 -2.01609,-0.84305 -3.05469,-1.27734 -1.0132,-0.42411 -2.0264,-0.84821 -3.07031,-1.28516 -1.99985,-0.8337 -3.99985,-1.66704 -6,-2.5 -6,-2.5 -6,-2.5 -12,-5 -0.98742,-0.41121 -1.97484,-0.82242 -2.99219,-1.24609 -2.02666,-0.84488 -4.05269,-1.69127 -6.07812,-2.53907 -1.00805,-0.42152 -2.0161,-0.84304 -3.05469,-1.27734 -0.9784,-0.41121 -1.9568,-0.82242 -2.96484,-1.24609 -1.93831,-0.79354 -3.88929,-1.5568 -5.85157,-2.28907 -0.90621,-0.33902 -1.81242,-0.67804 -2.74609,-1.02734 -0.80824,-0.29133 -1.61648,-0.58266 -2.44922,-0.88281 C 315,604 315,604 314,601 c 23.31794,-10.07047 55.66012,-10.10429 79,0 z"
     fill="#FFFFFF"
     id="path3"
     style="fill:#000000;fill-opacity:1" />
</svg>
