<?xml version="1.0" encoding="UTF-8" standalone="no"?>
<svg
   version="1.1"
   width="512"
   height="512"
   id="svg1"
   xmlns="http://www.w3.org/2000/svg"
   xmlns:svg="http://www.w3.org/2000/svg">
  <defs
     id="defs1" />
  <path
     d="m 248.43297,76.871431 c 5.83347,0.0038 11.66692,0.0024 17.50038,-0.0018 86.26084,-0.0605 86.26084,-0.0605 128.56665,2.505371 1.09225,0.0647 2.1845,0.12939 3.30985,0.196045 13.22572,0.787527 26.43923,1.652821 39.62765,2.928955 1.12149,0.106187 2.24297,0.212373 3.39844,0.321777 C 460.22588,84.87402 477.03498,90.985137 490,106 c 24.54648,30.7359 22.15674,79.97219 22.16797,117.20703 0.003,2.53562 0.007,5.07124 0.0101,7.60686 0.006,5.29926 0.008,10.59851 0.007,15.89778 -5.3e-4,5.38089 0.006,10.76171 0.0205,16.14258 0.0169,6.56727 0.0235,13.13449 0.0229,19.70179 10e-4,2.47012 0.005,4.94025 0.0133,7.41037 0.0628,21.79817 -0.69218,43.65745 -4.11703,65.22109 -0.17144,1.11238 -0.34289,2.22476 -0.51953,3.37085 -3.62683,22.74212 -9.94516,43.92597 -29.41797,58.19165 -15.02467,9.9094 -31.00238,11.82706 -48.5,13.3125 -1.44187,0.12648 -1.44187,0.12648 -2.91287,0.25552 -13.55785,1.18705 -27.12046,2.16848 -40.71213,2.86948 -1.04687,0.0551 -1.04687,0.0551 -2.1149,0.11136 -4.65358,0.23872 -9.30798,0.4276 -13.96469,0.59399 -2.08655,0.075 -4.17297,0.15378 -6.25928,0.23554 -32.97286,1.2559 -65.97813,1.05929 -98.96922,1.05672 -5.7012,3e-4 -11.40235,0.008 -17.10353,0.0207 -32.81861,0.069 -65.6105,0.0188 -98.4126,-1.12769 -1.18514,-0.0413 -2.37028,-0.0827 -3.59134,-0.1253 C 62.54602,430.96814 62.54602,430.96814 44.99974,423 44.09869,422.60297 43.19763,422.20594 42.26927,421.79687 26.97141,414.28819 16.31985,401.12212 10.18724,385.4375 0.24262,354.6126 -0.15208,320.63478 -0.20338,288.54687 c -0.003,-1.20913 -0.006,-2.41827 -0.009,-3.66405 -0.0149,-6.41521 -0.0242,-12.83039 -0.0285,-19.24561 -0.004,-5.22241 -0.0182,-10.44464 -0.041,-15.667 C -0.79389,130.54609 -0.79389,130.54609 25.99937,102 42.01865,86.516318 61.08109,83.739857 82.31187,81.9375 c 0.96125,-0.08432 1.9225,-0.168645 2.91287,-0.255523 13.55786,-1.187051 27.12046,-2.168476 40.71213,-2.869477 0.69792,-0.03675 1.39584,-0.0735 2.1149,-0.111358 4.6555,-0.23882 9.31183,-0.427349 13.97046,-0.59372 2.0776,-0.07496 4.15505,-0.154243 6.23236,-0.236816 33.37456,-1.291192 66.78569,-1.023275 100.17838,-0.999175 z M 190,167 c 0,55.11 0,110.22 0,167 3.75506,-1.25169 6.85365,-2.30129 10.29297,-4.03125 0.78399,-0.3926 1.56798,-0.7852 2.37573,-1.1897 1.24681,-0.63313 1.24681,-0.63313 2.5188,-1.27905 0.88728,-0.44722 1.77456,-0.89445 2.68872,-1.35523 6.39276,-3.2347 12.7408,-6.54954 19.0708,-9.90502 8.06796,-4.26922 16.1854,-8.44096 24.30298,-12.61475 9.51287,-4.89227 19.02088,-9.79253 28.5,-14.75 8.48835,-4.43931 16.99048,-8.85145 25.5,-13.25 1.21827,-0.62995 2.43653,-1.25991 3.65479,-1.88989 5.63586,-2.91414 11.27246,-5.82685 16.91064,-8.73651 2.50507,-1.29325 5.0094,-2.58793 7.51355,-3.88294 1.75981,-0.90945 3.52058,-1.81702 5.28137,-2.72455 1.58893,-0.82202 1.58893,-0.82202 3.20996,-1.66064 0.93087,-0.48058 1.86173,-0.96116 2.82081,-1.4563 2.51581,-1.3119 2.51581,-1.3119 5.35888,-3.27417 0,-0.66 0,-1.32 0,-2 -1.07761,-0.5576 -1.07761,-0.5576 -2.177,-1.12647 C 323.71352,236.39482 323.71352,236.39482 313.5,231 c -7.64669,-4.03878 -15.32036,-8.02426 -23,-12 -8.42254,-4.36034 -16.83236,-8.74245 -25.21875,-13.17188 C 258.37203,202.18422 251.43674,198.59119 244.5,195 c -7.80345,-4.04036 -15.60185,-8.08911 -23.375,-12.1875 -1.10191,-0.5808 -1.10191,-0.5808 -2.22607,-1.17334 -3.24209,-1.70954 -6.4837,-3.42 -9.7251,-5.13086 -2.9319,-1.54643 -5.86524,-3.09008 -8.79883,-4.6333 -0.92023,-0.48622 -1.84046,-0.97244 -2.78857,-1.47339 -0.84579,-0.44448 -1.69157,-0.88897 -2.56299,-1.34692 -0.75362,-0.3972 -1.50724,-0.79439 -2.28369,-1.20362 C 191.17308,166.92676 191.17308,166.92676 190,167 Z"
     fill="#FFFFFF"
     id="path1"
     style="fill:#000000;fill-opacity:1" />
</svg>
